<svg width="265" height="265" viewBox="0 0 265 265" fill="none" xmlns="http://www.w3.org/2000/svg">
<path d="M179.605 54.3038H85.3182V199.529H179.605V54.3038Z" fill="white"/>
<path d="M182.812 202.709H82.1382V51.1292H182.812V202.709ZM88.5247 196.349H176.452V57.4892H88.4982L88.5247 196.349Z" fill="#37474F"/>
<path d="M179.605 109.228H85.3182V112.44H179.605V109.228Z" fill="#37474F"/>
<path d="M179.605 85.2823H85.3182V88.4941H179.605V85.2823Z" fill="#37474F"/>
<path d="M153.794 60.3882V110.176H156.709V60.3882H153.794Z" fill="#37474F"/>
<path d="M131.004 60.3882V110.176H133.919V60.3882H131.004Z" fill="#37474F"/>
<path d="M108.214 60.3882V110.176H111.129V60.3882H108.214Z" fill="#37474F"/>
<path d="M185.509 50.5938H79.414V62.222H185.509V50.5938Z" fill="#37474F"/>
<path d="M185.509 50.5938H79.414V58.7028H185.509V50.5938Z" fill="#263238"/>
<path d="M189.521 44.7797H75.4072V56.4079H189.521V44.7797Z" fill="#37474F"/>
<path d="M82.1382 62.2274H35V202.709H82.1382V62.2274Z" fill="#DBDBDB"/>
<path d="M77.9618 66.9337H39.1764V69.5201H77.9618V66.9337Z" fill="#C7C7C7"/>
<path d="M77.9618 71.6931H39.1764V74.2795H77.9618V71.6931Z" fill="#C7C7C7"/>
<path d="M77.9618 76.4525H39.1764V79.0389H77.9618V76.4525Z" fill="#C7C7C7"/>
<path d="M77.9618 81.2066H39.1764V83.793H77.9618V81.2066Z" fill="#C7C7C7"/>
<path d="M77.9618 85.966H39.1764V88.5524H77.9618V85.966Z" fill="#C7C7C7"/>
<path d="M77.9618 90.7254H39.1764V93.3118H77.9618V90.7254Z" fill="#C7C7C7"/>
<path d="M77.9618 95.4848H39.1764V98.0712H77.9618V95.4848Z" fill="#C7C7C7"/>
<path d="M77.9618 100.244H39.1764V102.831H77.9618V100.244Z" fill="#C7C7C7"/>
<path d="M77.9618 105.004H39.1764V107.59H77.9618V105.004Z" fill="#C7C7C7"/>
<path d="M77.9618 109.763H39.1764V112.349H77.9618V109.763Z" fill="#C7C7C7"/>
<path d="M77.9618 114.517H39.1764V117.104H77.9618V114.517Z" fill="#C7C7C7"/>
<path d="M77.9618 119.277H39.1764V121.863H77.9618V119.277Z" fill="#C7C7C7"/>
<path d="M77.9618 128.795H39.1764V131.382H77.9618V128.795Z" fill="#C7C7C7"/>
<path d="M77.9618 133.555H39.1764V136.141H77.9618V133.555Z" fill="#C7C7C7"/>
<path d="M77.9618 138.314H39.1764V140.901H77.9618V138.314Z" fill="#C7C7C7"/>
<path d="M77.9618 143.074H39.1764V145.66H77.9618V143.074Z" fill="#C7C7C7"/>
<path d="M77.9618 147.828H39.1764V150.414H77.9618V147.828Z" fill="#C7C7C7"/>
<path d="M77.9618 152.587H39.1764V155.173H77.9618V152.587Z" fill="#C7C7C7"/>
<path d="M77.9618 157.346H39.1764V159.933H77.9618V157.346Z" fill="#C7C7C7"/>
<path d="M77.9618 162.106H39.1764V164.692H77.9618V162.106Z" fill="#C7C7C7"/>
<path d="M77.9618 166.865H39.1764V169.452H77.9618V166.865Z" fill="#C7C7C7"/>
<path d="M77.9618 171.625H39.1764V174.211H77.9618V171.625Z" fill="#C7C7C7"/>
<path d="M77.9618 176.384H39.1764V178.97H77.9618V176.384Z" fill="#C7C7C7"/>
<path d="M77.9618 181.143H39.1764V183.73H77.9618V181.143Z" fill="#C7C7C7"/>
<path d="M77.9618 185.898H39.1764V188.484H77.9618V185.898Z" fill="#C7C7C7"/>
<path d="M77.9618 190.657H39.1764V193.243H77.9618V190.657Z" fill="#C7C7C7"/>
<path d="M77.9618 195.416H39.1764V198.003H77.9618V195.416Z" fill="#C7C7C7"/>
<path d="M229.923 62.2274H182.785V202.709H229.923V62.2274Z" fill="#DBDBDB"/>
<path d="M225.747 66.9337H186.962V69.5201H225.747V66.9337Z" fill="#C7C7C7"/>
<path d="M225.747 71.6931H186.962V74.2795H225.747V71.6931Z" fill="#C7C7C7"/>
<path d="M225.747 76.4525H186.962V79.0389H225.747V76.4525Z" fill="#C7C7C7"/>
<path d="M225.747 81.2066H186.962V83.793H225.747V81.2066Z" fill="#C7C7C7"/>
<path d="M225.747 85.966H186.962V88.5524H225.747V85.966Z" fill="#C7C7C7"/>
<path d="M225.747 90.7254H186.962V93.3118H225.747V90.7254Z" fill="#C7C7C7"/>
<path d="M225.747 95.4848H186.962V98.0712H225.747V95.4848Z" fill="#C7C7C7"/>
<path d="M225.747 100.244H186.962V102.831H225.747V100.244Z" fill="#C7C7C7"/>
<path d="M225.747 105.004H186.962V107.59H225.747V105.004Z" fill="#C7C7C7"/>
<path d="M225.747 109.763H186.962V112.349H225.747V109.763Z" fill="#C7C7C7"/>
<path d="M225.747 114.517H186.962V117.104H225.747V114.517Z" fill="#C7C7C7"/>
<path d="M225.747 119.277H186.962V121.863H225.747V119.277Z" fill="#C7C7C7"/>
<path d="M225.747 128.795H186.962V131.382H225.747V128.795Z" fill="#C7C7C7"/>
<path d="M225.747 133.555H186.962V136.141H225.747V133.555Z" fill="#C7C7C7"/>
<path d="M225.747 138.314H186.962V140.901H225.747V138.314Z" fill="#C7C7C7"/>
<path d="M225.747 143.074H186.962V145.66H225.747V143.074Z" fill="#C7C7C7"/>
<path d="M225.747 147.828H186.962V150.414H225.747V147.828Z" fill="#C7C7C7"/>
<path d="M225.747 152.587H186.962V155.173H225.747V152.587Z" fill="#C7C7C7"/>
<path d="M225.747 157.346H186.962V159.933H225.747V157.346Z" fill="#C7C7C7"/>
<path d="M225.747 162.106H186.962V164.692H225.747V162.106Z" fill="#C7C7C7"/>
<path d="M225.747 166.865H186.962V169.452H225.747V166.865Z" fill="#C7C7C7"/>
<path d="M225.747 171.625H186.962V174.211H225.747V171.625Z" fill="#C7C7C7"/>
<path d="M225.747 176.384H186.962V178.97H225.747V176.384Z" fill="#C7C7C7"/>
<path d="M225.747 181.143H186.962V183.73H225.747V181.143Z" fill="#C7C7C7"/>
<path d="M225.747 185.898H186.962V188.484H225.747V185.898Z" fill="#C7C7C7"/>
<path d="M225.747 190.657H186.962V193.243H225.747V190.657Z" fill="#C7C7C7"/>
<path d="M225.747 195.416H186.962V198.003H225.747V195.416Z" fill="#C7C7C7"/>
<path d="M142.846 130.491C142.559 139.867 143.789 151.161 139.136 159.726C135.494 166.425 128.604 170.596 121.614 173.077C106.244 178.53 85.3459 177.799 76.0338 162.244C72.3238 156.027 72.5464 143.694 79.7862 139.713C83.4962 137.683 87.7362 137.471 91.849 136.692C97.2444 135.675 101.283 132.982 104.097 128.265C109.604 119.043 109.185 111.952 110.887 101.654C111.21 99.746 111.803 97.8857 113.828 96.407C115.656 94.8602 117.872 93.8414 120.236 93.4602C122.277 92.7522 124.462 92.5592 126.596 92.8984C131.148 93.7252 135.235 98.2991 138.584 101.203C141.934 104.108 143.418 107.065 143.354 111.597C143.317 117.898 143.036 124.195 142.846 130.491Z" fill="#263238"/>
<path d="M143.667 134.986C143.381 126.368 142.92 117.777 142.517 109.169C142.517 109.116 142.437 109.111 142.437 109.169C142.559 116.261 142.591 123.347 142.808 130.438C143.02 137.387 143.715 144.515 143.338 151.463C142.448 167.051 125.96 172.17 112.779 170.4C112.18 170.321 112.121 171.285 112.731 171.344C124.349 172.536 138.542 169.616 143.02 157.23C145.453 150.451 143.906 142.04 143.667 134.986Z" fill="#263238"/>
<path d="M111.74 100.896C111.734 100.866 111.718 100.839 111.694 100.82C111.67 100.8 111.641 100.79 111.61 100.79C111.579 100.79 111.55 100.8 111.526 100.82C111.502 100.839 111.486 100.866 111.48 100.896C110.42 109.429 110.023 119.446 104.59 126.559C101.904 130.037 98.2293 132.623 94.0485 133.979C90.736 135.039 87.3175 134.896 83.9043 135.304C70.5695 136.894 69.0643 154.622 78.1167 162.27C78.3022 162.429 78.5884 162.111 78.4029 161.936C72.0906 156.069 70.6119 146.163 76.638 139.432C81.4716 134.032 89.782 136.496 96.0148 133.857C108.931 128.387 111.056 113.346 111.74 100.896Z" fill="#263238"/>
<path d="M113.113 137.27C99.2637 151.31 81.8426 180.847 85.0862 186.83C88.7061 193.503 107.993 173.819 107.919 172.669C107.86 171.799 114.65 153.859 119.796 140.81C124.942 127.762 116.542 133.777 113.113 137.27Z" fill="#F7A9A0"/>
<path d="M108.046 172.669C108.639 170.75 117.872 147.096 120.511 139.613C123.151 132.129 120.702 129.818 113.166 136.671C105.629 143.524 89.1036 166.409 85.3353 178.541C81.6995 190.243 87.7256 190.243 95.6756 184.848C102.184 180.454 108.046 172.669 108.046 172.669Z" fill="#FA6767"/>
<path d="M121.502 135.574C121.502 135.712 121.476 135.85 121.455 135.998C121.41 136.062 121.351 136.114 121.281 136.15C121.212 136.186 121.135 136.205 121.057 136.205C120.971 136.204 120.886 136.181 120.813 136.136C120.739 136.091 120.679 136.026 120.639 135.95C120.6 135.873 120.582 135.787 120.588 135.701C120.594 135.614 120.623 135.532 120.673 135.461C120.723 135.39 120.791 135.335 120.87 135.3C120.949 135.266 121.036 135.254 121.122 135.266C121.208 135.277 121.288 135.312 121.355 135.367C121.423 135.421 121.473 135.493 121.502 135.574ZM105.788 145.474C105.693 145.473 105.6 145.501 105.521 145.553C105.442 145.605 105.38 145.679 105.343 145.766C105.306 145.854 105.296 145.95 105.315 146.043C105.333 146.136 105.378 146.222 105.445 146.289C105.512 146.356 105.598 146.401 105.691 146.419C105.784 146.438 105.88 146.428 105.968 146.391C106.055 146.354 106.129 146.292 106.182 146.213C106.234 146.134 106.261 146.041 106.26 145.946C106.26 145.821 106.21 145.701 106.122 145.613C106.033 145.524 105.913 145.474 105.788 145.474ZM113.42 145.474C113.325 145.474 113.233 145.503 113.154 145.555C113.076 145.608 113.015 145.683 112.979 145.77C112.943 145.858 112.934 145.954 112.953 146.046C112.971 146.139 113.017 146.224 113.085 146.291C113.152 146.357 113.237 146.402 113.33 146.42C113.423 146.438 113.519 146.427 113.606 146.391C113.693 146.354 113.767 146.292 113.819 146.213C113.871 146.133 113.898 146.041 113.897 145.946C113.897 145.884 113.885 145.822 113.861 145.764C113.837 145.707 113.801 145.655 113.757 145.611C113.713 145.567 113.66 145.532 113.602 145.509C113.544 145.485 113.482 145.474 113.42 145.474ZM109.604 140.582C109.509 140.582 109.417 140.611 109.338 140.663C109.26 140.716 109.199 140.791 109.163 140.878C109.127 140.966 109.118 141.062 109.137 141.155C109.155 141.247 109.201 141.332 109.269 141.399C109.336 141.465 109.421 141.51 109.514 141.528C109.607 141.546 109.703 141.536 109.79 141.499C109.877 141.462 109.951 141.4 110.003 141.321C110.055 141.241 110.082 141.149 110.081 141.054C110.081 140.992 110.069 140.93 110.045 140.872C110.021 140.815 109.985 140.763 109.941 140.719C109.897 140.675 109.844 140.64 109.786 140.617C109.728 140.593 109.666 140.582 109.604 140.582ZM117.241 140.582C117.146 140.581 117.054 140.609 116.974 140.661C116.895 140.713 116.833 140.787 116.796 140.874C116.76 140.962 116.75 141.058 116.768 141.151C116.786 141.244 116.832 141.33 116.899 141.397C116.966 141.464 117.051 141.509 117.144 141.528C117.237 141.546 117.334 141.536 117.421 141.499C117.508 141.462 117.583 141.4 117.635 141.321C117.687 141.242 117.714 141.149 117.713 141.054C117.713 140.929 117.663 140.809 117.575 140.721C117.486 140.632 117.366 140.582 117.241 140.582ZM98.1613 155.687C98.0665 155.686 97.9735 155.714 97.8943 155.766C97.8151 155.818 97.7531 155.892 97.7163 155.979C97.6796 156.067 97.6697 156.163 97.6879 156.256C97.7062 156.349 97.7517 156.435 97.8187 156.502C97.8857 156.569 97.9712 156.614 98.0642 156.633C98.1573 156.651 98.2536 156.641 98.341 156.604C98.4284 156.567 98.5028 156.505 98.5548 156.426C98.6068 156.347 98.634 156.254 98.633 156.159C98.633 156.097 98.6206 156.035 98.5966 155.977C98.5725 155.92 98.5373 155.868 98.493 155.824C98.4486 155.78 98.396 155.745 98.3381 155.722C98.2803 155.698 98.2184 155.687 98.156 155.687H98.1613ZM105.793 155.687C105.698 155.686 105.606 155.714 105.526 155.766C105.447 155.818 105.385 155.892 105.348 155.979C105.312 156.067 105.302 156.163 105.32 156.256C105.338 156.349 105.384 156.435 105.451 156.502C105.518 156.569 105.603 156.614 105.696 156.633C105.789 156.651 105.886 156.641 105.973 156.604C106.06 156.567 106.135 156.505 106.187 156.426C106.239 156.347 106.266 156.254 106.265 156.159C106.265 156.097 106.253 156.035 106.229 155.977C106.205 155.92 106.169 155.868 106.125 155.824C106.081 155.78 106.028 155.745 105.97 155.722C105.912 155.698 105.85 155.687 105.788 155.687H105.793ZM113.425 155.687C113.331 155.687 113.238 155.716 113.16 155.768C113.081 155.821 113.02 155.896 112.984 155.983C112.948 156.071 112.939 156.167 112.958 156.26C112.977 156.352 113.023 156.437 113.09 156.504C113.157 156.57 113.243 156.615 113.336 156.633C113.428 156.651 113.524 156.641 113.612 156.604C113.699 156.567 113.773 156.505 113.824 156.426C113.876 156.346 113.903 156.254 113.902 156.159C113.902 156.096 113.89 156.034 113.865 155.976C113.841 155.918 113.805 155.866 113.76 155.822C113.715 155.778 113.662 155.743 113.604 155.72C113.545 155.697 113.483 155.686 113.42 155.687H113.425ZM101.977 150.796C101.882 150.795 101.79 150.822 101.71 150.874C101.631 150.926 101.569 151 101.532 151.088C101.496 151.175 101.486 151.271 101.504 151.364C101.522 151.457 101.568 151.543 101.635 151.61C101.702 151.677 101.787 151.722 101.88 151.741C101.973 151.759 102.07 151.749 102.157 151.712C102.244 151.675 102.319 151.614 102.371 151.534C102.423 151.455 102.45 151.362 102.449 151.267C102.449 151.205 102.437 151.143 102.413 151.086C102.389 151.028 102.353 150.976 102.309 150.932C102.265 150.888 102.212 150.853 102.154 150.83C102.096 150.807 102.034 150.795 101.972 150.796H101.977ZM109.609 150.796C109.515 150.796 109.422 150.824 109.344 150.876C109.265 150.929 109.204 151.004 109.168 151.091C109.132 151.179 109.123 151.275 109.142 151.368C109.161 151.46 109.207 151.545 109.274 151.612C109.341 151.678 109.427 151.723 109.52 151.741C109.612 151.759 109.708 151.749 109.796 151.712C109.883 151.675 109.957 151.613 110.008 151.534C110.06 151.455 110.087 151.362 110.086 151.267C110.086 151.204 110.074 151.142 110.049 151.084C110.025 151.026 109.989 150.974 109.944 150.93C109.899 150.886 109.846 150.851 109.788 150.828C109.729 150.805 109.667 150.794 109.604 150.796H109.609ZM98.156 165.89C98.0612 165.889 97.9682 165.916 97.889 165.968C97.8097 166.02 97.7478 166.095 97.711 166.182C97.6743 166.269 97.6644 166.366 97.6826 166.459C97.7009 166.552 97.7464 166.637 97.8134 166.704C97.8804 166.771 97.9659 166.817 98.0589 166.835C98.152 166.853 98.2483 166.843 98.3357 166.807C98.4231 166.77 98.4975 166.708 98.5495 166.629C98.6015 166.549 98.6287 166.456 98.6277 166.362C98.6277 166.237 98.578 166.117 98.4895 166.028C98.4011 165.94 98.2811 165.89 98.156 165.89ZM105.788 165.89C105.693 165.889 105.6 165.916 105.521 165.968C105.442 166.02 105.38 166.095 105.343 166.182C105.306 166.269 105.296 166.366 105.315 166.459C105.333 166.552 105.378 166.637 105.445 166.704C105.512 166.771 105.598 166.817 105.691 166.835C105.784 166.853 105.88 166.843 105.968 166.807C106.055 166.77 106.129 166.708 106.182 166.629C106.234 166.549 106.261 166.456 106.26 166.362C106.26 166.237 106.21 166.117 106.122 166.028C106.033 165.94 105.913 165.89 105.788 165.89ZM94.34 161.009C94.2454 161.009 94.153 161.037 94.0744 161.089C93.9959 161.142 93.9347 161.217 93.8988 161.304C93.8629 161.392 93.8537 161.488 93.8726 161.581C93.8914 161.673 93.9374 161.758 94.0046 161.825C94.0718 161.891 94.1573 161.936 94.2502 161.954C94.3431 161.972 94.4392 161.962 94.5262 161.925C94.6133 161.888 94.6874 161.826 94.7392 161.747C94.7909 161.668 94.818 161.575 94.817 161.48C94.817 161.418 94.8046 161.356 94.7806 161.299C94.7565 161.241 94.7213 161.189 94.677 161.145C94.6326 161.101 94.58 161.066 94.5221 161.043C94.4643 161.02 94.4024 161.008 94.34 161.009ZM101.977 161.009C101.882 161.008 101.79 161.035 101.71 161.087C101.631 161.139 101.569 161.213 101.532 161.301C101.496 161.388 101.486 161.484 101.504 161.577C101.522 161.67 101.568 161.756 101.635 161.823C101.702 161.89 101.787 161.936 101.88 161.954C101.973 161.972 102.07 161.962 102.157 161.925C102.244 161.889 102.319 161.827 102.371 161.747C102.423 161.668 102.45 161.575 102.449 161.48C102.449 161.418 102.437 161.356 102.413 161.299C102.389 161.241 102.353 161.189 102.309 161.145C102.265 161.101 102.212 161.066 102.154 161.043C102.096 161.02 102.034 161.008 101.972 161.009H101.977ZM109.609 161.009C109.515 161.009 109.422 161.037 109.344 161.089C109.265 161.142 109.204 161.217 109.168 161.304C109.132 161.392 109.123 161.488 109.142 161.581C109.161 161.673 109.207 161.758 109.274 161.825C109.341 161.891 109.427 161.936 109.52 161.954C109.612 161.972 109.708 161.962 109.796 161.925C109.883 161.888 109.957 161.826 110.008 161.747C110.06 161.668 110.087 161.575 110.086 161.48C110.086 161.418 110.074 161.355 110.049 161.297C110.025 161.239 109.989 161.187 109.944 161.143C109.899 161.099 109.846 161.065 109.788 161.042C109.729 161.018 109.667 161.007 109.604 161.009H109.609ZM90.5293 176.114C90.4362 176.115 90.3455 176.143 90.2687 176.196C90.1918 176.248 90.1322 176.322 90.0973 176.409C90.0624 176.495 90.0538 176.589 90.0726 176.681C90.0914 176.772 90.1367 176.855 90.2029 176.921C90.2691 176.986 90.3531 177.031 90.4445 177.048C90.5358 177.066 90.6304 177.057 90.7163 177.021C90.8022 176.985 90.8755 176.924 90.9271 176.847C90.9787 176.769 91.0063 176.678 91.0063 176.585C91.0063 176.522 90.9936 176.459 90.9689 176.401C90.9442 176.343 90.908 176.29 90.8625 176.246C90.8171 176.202 90.7632 176.168 90.7041 176.145C90.645 176.122 90.5819 176.112 90.5187 176.114H90.5293ZM98.1666 176.114C98.0733 176.114 97.9821 176.141 97.9045 176.193C97.8269 176.245 97.7665 176.319 97.7308 176.405C97.6951 176.491 97.6857 176.586 97.7039 176.677C97.7221 176.769 97.7671 176.853 97.833 176.919C97.899 176.985 97.9831 177.03 98.0746 177.048C98.1661 177.066 98.2609 177.057 98.3471 177.021C98.4333 176.985 98.5069 176.925 98.5588 176.847C98.6106 176.77 98.6383 176.679 98.6383 176.585C98.6383 176.523 98.6257 176.46 98.6014 176.402C98.577 176.344 98.5413 176.292 98.4964 176.248C98.4515 176.204 98.3982 176.17 98.3397 176.147C98.2813 176.123 98.2188 176.112 98.156 176.114H98.1666ZM94.34 171.222C94.2454 171.222 94.153 171.25 94.0744 171.303C93.9959 171.355 93.9347 171.43 93.8988 171.517C93.8629 171.605 93.8537 171.701 93.8726 171.794C93.8914 171.886 93.9374 171.971 94.0046 172.038C94.0718 172.104 94.1573 172.149 94.2502 172.167C94.3431 172.185 94.4392 172.175 94.5262 172.138C94.6133 172.101 94.6874 172.039 94.7392 171.96C94.7909 171.881 94.818 171.788 94.817 171.693C94.817 171.631 94.8046 171.569 94.7806 171.512C94.7565 171.454 94.7213 171.402 94.677 171.358C94.6326 171.314 94.58 171.28 94.5221 171.256C94.4643 171.233 94.4024 171.221 94.34 171.222ZM101.977 171.222C101.882 171.221 101.79 171.248 101.71 171.3C101.631 171.352 101.569 171.426 101.532 171.514C101.496 171.601 101.486 171.698 101.504 171.791C101.522 171.884 101.568 171.969 101.635 172.036C101.702 172.103 101.787 172.149 101.88 172.167C101.973 172.185 102.07 172.175 102.157 172.138C102.244 172.102 102.319 172.04 102.371 171.96C102.423 171.881 102.45 171.788 102.449 171.693C102.449 171.631 102.437 171.569 102.413 171.512C102.389 171.454 102.353 171.402 102.309 171.358C102.265 171.314 102.212 171.28 102.154 171.256C102.096 171.233 102.034 171.221 101.972 171.222H101.977ZM90.524 186.327C90.4309 186.328 90.3403 186.356 90.2634 186.409C90.1865 186.461 90.1269 186.535 90.092 186.622C90.0571 186.708 90.0485 186.803 90.0673 186.894C90.0861 186.985 90.1314 187.068 90.1976 187.134C90.2638 187.199 90.3478 187.244 90.4392 187.261C90.5305 187.279 90.6251 187.27 90.711 187.234C90.7969 187.198 90.8702 187.137 90.9218 187.06C90.9734 186.983 91.001 186.892 91.001 186.798C91.001 186.736 90.9884 186.673 90.9641 186.616C90.9397 186.558 90.904 186.505 90.8591 186.461C90.8142 186.417 90.7609 186.383 90.7024 186.36C90.644 186.337 90.5815 186.325 90.5187 186.327H90.524ZM86.708 181.435C86.6132 181.434 86.5203 181.461 86.441 181.513C86.3618 181.565 86.2998 181.64 86.263 181.727C86.2263 181.814 86.2164 181.911 86.2346 182.004C86.2529 182.097 86.2984 182.182 86.3654 182.249C86.4324 182.316 86.5179 182.362 86.6109 182.38C86.704 182.398 86.8003 182.388 86.8877 182.352C86.9751 182.315 87.0495 182.253 87.1015 182.174C87.1535 182.094 87.1807 182.001 87.1797 181.907C87.1797 181.844 87.1673 181.782 87.1433 181.725C87.1192 181.667 87.084 181.615 87.0397 181.571C86.9953 181.527 86.9427 181.493 86.8848 181.469C86.827 181.446 86.7651 181.434 86.7027 181.435H86.708ZM94.34 181.435C94.2454 181.435 94.153 181.463 94.0744 181.516C93.9959 181.568 93.9347 181.643 93.8988 181.731C93.8629 181.818 93.8537 181.914 93.8726 182.007C93.8914 182.1 93.9374 182.185 94.0046 182.251C94.0718 182.318 94.1573 182.363 94.2502 182.38C94.3431 182.398 94.4392 182.388 94.5262 182.351C94.6133 182.314 94.6874 182.252 94.7392 182.173C94.7909 182.094 94.818 182.001 94.817 181.907C94.817 181.844 94.8046 181.782 94.7806 181.725C94.7565 181.667 94.7213 181.615 94.677 181.571C94.6326 181.527 94.58 181.493 94.5221 181.469C94.4643 181.446 94.4024 181.434 94.34 181.435Z" fill="white"/>
<path d="M102.571 194.16L103.954 185.866L105.942 171.148C105.942 171.148 101.262 162.975 103.975 157.113C105.348 154.14 117.374 135.68 122.43 131.97C127.2 128.52 134.09 132.214 136.645 134.912C146.534 145.321 151.198 165.991 154.749 194.144L102.571 194.16Z" fill="#F7A9A0"/>
<path d="M104.304 183.263L105.942 171.153C105.942 171.153 101.262 162.98 103.975 157.113C105.348 154.14 117.374 135.68 122.43 131.97C127.2 128.525 134.09 132.214 136.645 134.917C145.209 143.927 149.858 160.643 153.255 183.248L104.304 183.263Z" fill="#FA6767"/>
<path d="M124.603 170.904C122.294 170.701 119.973 170.671 117.66 170.814C116.515 170.898 115.376 171.036 114.236 171.201C113.669 171.28 113.102 171.344 112.53 171.402C111.935 171.476 111.333 171.476 110.738 171.402C110.732 171.4 110.725 171.399 110.718 171.4C110.711 171.4 110.705 171.403 110.699 171.407C110.694 171.411 110.689 171.416 110.686 171.422C110.683 171.428 110.681 171.435 110.681 171.442C110.681 171.449 110.683 171.455 110.686 171.461C110.689 171.467 110.694 171.473 110.699 171.477C110.705 171.48 110.711 171.483 110.718 171.484C110.725 171.485 110.732 171.484 110.738 171.481C111.292 171.609 111.853 171.699 112.418 171.752C112.967 171.789 113.518 171.789 114.067 171.752C115.233 171.678 116.393 171.545 117.559 171.46C119.907 171.28 122.255 171.105 124.614 171.095C124.639 171.093 124.663 171.082 124.679 171.063C124.696 171.044 124.705 171.019 124.704 170.994C124.702 170.969 124.691 170.945 124.672 170.928C124.653 170.911 124.628 170.902 124.603 170.904Z" fill="#263238"/>
<path d="M129.85 173.914C128.014 173.385 126.148 172.96 124.264 172.642C123.32 172.483 122.377 172.388 121.423 172.308C120.967 172.271 120.511 172.245 120.056 172.223C119.6 172.202 119.049 172.223 118.545 172.223C118.492 172.223 118.476 172.298 118.545 172.303C119.017 172.351 119.483 172.473 119.95 172.547L121.359 172.759C122.303 172.902 123.246 173.056 124.19 173.193C126.076 173.464 127.958 173.75 129.834 174.084C129.935 174.089 129.956 173.941 129.85 173.914Z" fill="#263238"/>
<path d="M103.954 185.866C104.219 183.407 104.484 180.942 104.797 178.488C105.11 176.034 105.38 173.57 105.708 171.116L105.756 171.291C105.053 170.289 104.474 169.205 104.034 168.063C103.582 166.931 103.255 165.752 103.058 164.549C102.868 163.342 102.814 162.117 102.899 160.897C103.037 159.68 103.34 158.487 103.8 157.352C104.717 155.123 105.855 152.992 107.198 150.992C108.508 148.975 109.938 147.039 111.48 145.194C110.054 147.123 108.719 149.121 107.468 151.161C106.207 153.182 105.127 155.31 104.24 157.521C103.805 158.617 103.523 159.767 103.403 160.94C103.337 162.118 103.395 163.299 103.578 164.464C103.758 165.634 104.065 166.78 104.495 167.883C104.909 168.988 105.457 170.038 106.127 171.01L106.18 171.089V171.179C105.852 173.633 105.465 176.077 105.12 178.531C104.776 180.984 104.352 183.422 103.954 185.866Z" fill="#263238"/>
<path d="M107.468 150.981C107.496 150.651 107.562 150.326 107.664 150.011C107.761 149.697 107.876 149.389 108.009 149.089C108.141 148.792 108.279 148.495 108.438 148.209C108.596 147.921 108.773 147.643 108.968 147.377C108.767 148.008 108.507 148.601 108.252 149.195C107.998 149.789 107.717 150.372 107.468 150.981Z" fill="#263238"/>
<path d="M64.5222 235.622H200.478L205.545 210.14H59.4554L64.5222 235.622Z" fill="#FA6767"/>
<path opacity="0.12" d="M59.4607 210.14L61.2733 219.25H203.727L205.539 210.14H59.4607Z" fill="black"/>
<path d="M56.9114 216.123L208.089 216.123V208.369L56.9114 208.369V216.123Z" fill="#FA6767"/>
<path d="M206.377 205.921C205.915 206.374 205.331 206.681 204.697 206.806C205.003 207.577 205.066 208.423 204.876 209.23C204.686 210.038 204.254 210.768 203.637 211.322C203.815 211.724 203.874 212.169 203.806 212.604C203.738 213.039 203.545 213.444 203.252 213.772C202.959 214.101 202.577 214.337 202.152 214.453C201.728 214.569 201.279 214.56 200.859 214.427C200.486 215.131 199.969 215.749 199.342 216.241C198.715 216.732 197.992 217.087 197.22 217.283C196.447 217.478 195.642 217.509 194.857 217.374C194.072 217.239 193.323 216.941 192.66 216.5C192.309 217.126 191.809 217.655 191.204 218.042C190.6 218.428 189.909 218.66 189.193 218.715C188.478 218.771 187.759 218.649 187.102 218.361C186.445 218.072 185.869 217.626 185.426 217.061C184.055 218.056 182.367 218.514 180.682 218.349C178.996 218.184 177.43 217.408 176.278 216.166C175.641 216.752 174.837 217.122 173.978 217.226C172.918 217.406 171.805 217.284 170.766 217.533C169.293 217.888 168.407 218.948 167.268 219.833C166.128 220.718 164.088 221.052 162.991 220.151C161.803 222.257 160.116 224.039 158.078 225.341C156.041 226.643 153.715 227.426 151.304 227.619C147.165 227.937 142.008 225.96 141.028 221.72C139.981 222.623 138.734 223.263 137.391 223.586C136.047 223.91 134.645 223.907 133.303 223.578C131.96 223.249 130.716 222.604 129.674 221.696C128.632 220.788 127.821 219.644 127.311 218.36C124.062 219.717 119.854 220.623 117.771 217.491C116.897 218.501 115.68 219.152 114.355 219.321C113.03 219.489 111.689 219.162 110.59 218.402C107.283 221.906 101.352 226.135 97.4405 221.503C94.0909 224.508 88.4994 226.49 85.6162 222.033C82.8125 223.681 79.2562 225.165 76.1716 223.543C74.1364 222.483 72.822 220.31 73.1559 218.09C72.3665 218.238 71.551 218.151 70.8105 217.84C70.07 217.529 69.437 217.008 68.9901 216.341C67.6651 216.971 66.9125 215.588 65.8684 214.703C63.8597 212.98 61.2044 214.237 59.1109 212.763C55.7189 210.383 58.6339 206.578 61.3528 205.343C61.2285 204.484 61.319 203.608 61.6162 202.792C61.9135 201.977 62.4081 201.248 63.056 200.67C63.7039 200.093 64.4847 199.685 65.3288 199.483C66.1729 199.281 67.0539 199.291 67.893 199.513C67.6957 198.176 67.9093 196.81 68.5056 195.597C69.1018 194.383 70.0526 193.38 71.232 192.719C74.8466 190.683 79.0442 192.459 81.6942 195.225C83.003 193.236 84.8106 191.625 86.9366 190.553C89.0625 189.481 91.4325 188.985 93.81 189.115C96.7674 189.274 100.7 191.012 102.131 193.768C103.105 193.208 104.157 192.795 105.253 192.544C107.315 192.061 109.471 192.157 111.482 192.821C113.494 193.484 115.283 194.691 116.653 196.307C118.405 195.66 120.3 195.504 122.134 195.857C123.968 196.21 125.671 197.059 127.057 198.31C127.909 197.126 129.041 196.171 130.352 195.53C131.663 194.889 133.112 194.583 134.57 194.638C136.029 194.693 137.45 195.108 138.709 195.846C139.968 196.584 141.025 197.621 141.786 198.867C143.176 197.246 144.918 195.964 146.879 195.119C148.84 194.274 150.968 193.888 153.101 193.99C155.233 194.093 157.315 194.681 159.186 195.709C161.057 196.738 162.668 198.18 163.897 199.927C166.494 195.331 171.731 195.066 176.75 195.628C178.34 195.798 179.4 195.787 180.841 195.125C181.371 194.886 181.827 194.542 182.352 194.314C183.446 193.826 184.614 193.525 185.807 193.423C188.21 193.212 190.62 193.729 192.724 194.907C193.651 195.437 194.6 196.773 195.49 197.139C196.609 197.595 198.67 196.943 199.958 197.112C202.269 197.425 204.728 198.511 206.228 200.372C207.506 202.015 208.036 204.368 206.377 205.921Z" fill="#2B6831"/>
<path d="M75.154 203.764C76.214 201.564 75.154 197.632 72.3821 196.503C69.6102 195.374 65.8366 197.515 65.2218 199.937C64.607 202.359 67.257 206.408 69.43 206.7C71.8574 207.007 74.3696 205.38 75.154 203.764Z" fill="#FA6767"/>
<path opacity="0.12" d="M64.0611 200.52C66.0274 202.206 69.2922 203.7 71.9634 203.589C70.9187 204.878 69.731 206.044 68.423 207.066C68.3488 207.129 68.423 207.267 68.5237 207.209C71.5871 205.168 74.6028 201.479 74.7353 197.669C74.7353 197.616 74.6664 197.616 74.6611 197.669C74.5312 198.737 74.2287 199.777 73.7654 200.748C72.7054 198.469 69.7056 196.757 67.4054 196.217C67.3906 196.212 67.3745 196.213 67.3606 196.22C67.3467 196.227 67.3361 196.239 67.3312 196.254C67.3263 196.268 67.3274 196.285 67.3344 196.298C67.3413 196.312 67.3535 196.323 67.3683 196.328C68.0721 196.613 68.7604 196.935 69.43 197.292C68.158 198.416 67.1987 200.605 67.4849 202.285C66.3243 201.767 65.2227 201.125 64.1989 200.372C64.13 200.292 63.971 200.446 64.0611 200.52ZM72.08 203.456C70.9799 203.38 69.8946 203.159 68.8523 202.799C70.4269 202.889 71.9894 202.477 73.3149 201.623C72.9471 202.262 72.5344 202.875 72.08 203.456ZM73.67 200.923C73.5852 201.098 73.4951 201.267 73.3997 201.453C72.3646 201.978 71.2451 202.317 70.0925 202.455C71.1874 201.767 72.0412 200.756 72.5358 199.561C72.9542 199.98 73.3338 200.436 73.67 200.923ZM72.4722 199.481C72.0506 200.226 71.5398 200.917 70.9511 201.538C70.7338 201.49 70.5218 201.426 70.3098 201.358C70.6521 201.101 70.9274 200.766 71.1119 200.38C71.2965 199.994 71.385 199.57 71.3698 199.142C71.6666 199.179 71.9687 199.232 72.2761 199.296L72.4722 199.481ZM70.2144 199.079C70.3111 199.233 70.3894 199.399 70.4476 199.571C70.4961 199.785 70.5157 200.004 70.5059 200.223C70.1529 200.274 69.7937 200.259 69.4459 200.181C69.5266 199.815 69.6493 199.459 69.8116 199.121C69.96 199.089 70.0819 199.084 70.2144 199.079ZM70.4105 199.079C70.7064 199.078 71.002 199.096 71.2956 199.132C71.2186 199.485 71.1049 199.83 70.9564 200.16L70.5483 200.218C70.6115 200.03 70.6319 199.83 70.6081 199.633C70.5842 199.436 70.5167 199.246 70.4105 199.079ZM70.8928 200.282C70.6949 200.661 70.429 201 70.1084 201.283C69.915 201.207 69.7257 201.12 69.5413 201.024C69.4437 200.793 69.4055 200.542 69.43 200.292C69.6594 200.399 69.9096 200.453 70.1626 200.452C70.4156 200.45 70.665 200.392 70.8928 200.282ZM69.5148 197.33C70.4198 197.816 71.2662 198.405 72.0376 199.084C70.8378 198.687 69.5317 198.763 68.3859 199.296C68.6694 198.591 69.0493 197.93 69.5148 197.33ZM68.3223 199.45C68.7697 199.28 69.2359 199.164 69.7109 199.105C69.5046 199.344 69.3604 199.63 69.2911 199.938C69.2217 200.246 69.2294 200.566 69.3134 200.87C68.8729 200.612 68.4817 200.279 68.158 199.884C68.211 199.746 68.2693 199.603 68.3223 199.46V199.45ZM68.0785 200.117C68.4202 200.539 68.8429 200.888 69.3217 201.144C69.8005 201.4 70.3257 201.557 70.8663 201.607C70.5586 201.92 70.2234 202.206 69.8646 202.46C69.3982 202.524 68.9159 202.566 68.4071 202.614C68.1474 202.513 67.8771 202.412 67.628 202.301C67.7087 201.564 67.8596 200.836 68.0785 200.128V200.117Z" fill="black"/>
<path d="M121.471 202.942C122.531 200.738 121.471 196.81 118.699 195.676C115.927 194.542 112.148 196.694 111.533 199.11C110.918 201.527 113.574 205.587 115.773 205.868C118.19 206.17 120.686 204.58 121.471 202.942Z" fill="#FA6767"/>
<path opacity="0.12" d="M110.378 199.699C112.344 201.379 115.604 202.879 118.28 202.767C117.235 204.057 116.048 205.223 114.74 206.244C114.665 206.308 114.74 206.44 114.84 206.387C117.904 204.347 120.919 200.653 121.052 196.847C121.052 196.837 121.048 196.828 121.041 196.821C121.034 196.814 121.025 196.81 121.015 196.81C121.005 196.81 120.996 196.814 120.989 196.821C120.982 196.828 120.978 196.837 120.978 196.847C120.847 197.915 120.545 198.955 120.082 199.927C119.022 197.648 116.022 195.936 113.722 195.395C113.707 195.39 113.691 195.391 113.677 195.398C113.663 195.405 113.653 195.417 113.648 195.432C113.643 195.447 113.644 195.463 113.651 195.477C113.658 195.491 113.67 195.501 113.685 195.506C114.389 195.79 115.078 196.112 115.747 196.471C114.475 197.595 113.515 199.778 113.802 201.458C112.64 200.944 111.538 200.304 110.516 199.55C110.42 199.471 110.288 199.619 110.378 199.699ZM118.386 202.635C117.286 202.557 116.2 202.335 115.158 201.972C116.732 202.068 118.295 201.656 119.616 200.796C119.253 201.439 118.842 202.054 118.386 202.635ZM119.976 200.101C119.891 200.276 119.801 200.446 119.706 200.631C118.671 201.157 117.551 201.496 116.399 201.633C117.493 200.945 118.347 199.934 118.842 198.739C119.266 199.155 119.65 199.612 119.987 200.101H119.976ZM118.773 198.655C118.356 199.403 117.847 200.095 117.257 200.716C117.04 200.667 116.826 200.605 116.616 200.531C116.958 200.274 117.233 199.939 117.418 199.553C117.603 199.168 117.691 198.743 117.676 198.315C117.973 198.351 118.275 198.404 118.582 198.474L118.773 198.655ZM116.52 198.257C116.615 198.413 116.693 198.578 116.754 198.75C116.802 198.964 116.822 199.183 116.812 199.402C116.459 199.45 116.1 199.434 115.752 199.354C115.834 198.988 115.957 198.633 116.118 198.294C116.266 198.268 116.399 198.257 116.531 198.257H116.52ZM116.717 198.257C117.012 198.259 117.308 198.277 117.602 198.31C117.526 198.665 117.411 199.01 117.257 199.338C117.125 199.338 116.987 199.386 116.854 199.402C116.92 199.213 116.942 199.011 116.92 198.813C116.898 198.614 116.832 198.422 116.727 198.252L116.717 198.257ZM117.199 199.465C117 199.844 116.734 200.183 116.414 200.467C116.221 200.39 116.032 200.304 115.847 200.207C115.75 199.977 115.712 199.725 115.736 199.476C115.967 199.584 116.22 199.638 116.475 199.635C116.73 199.633 116.981 199.573 117.209 199.46L117.199 199.465ZM115.821 196.513C116.726 196.998 117.572 197.585 118.344 198.262C117.143 197.867 115.837 197.945 114.692 198.48C114.978 197.773 115.362 197.109 115.831 196.508L115.821 196.513ZM114.628 198.633C115.075 198.461 115.542 198.345 116.017 198.289C115.811 198.528 115.666 198.814 115.597 199.122C115.528 199.429 115.535 199.75 115.619 200.054C115.184 199.796 114.798 199.462 114.48 199.068L114.628 198.633ZM114.385 199.301C114.727 199.722 115.15 200.071 115.629 200.326C116.107 200.582 116.632 200.74 117.172 200.79C116.863 201.103 116.528 201.388 116.171 201.644C115.704 201.702 115.222 201.75 114.713 201.792H114.687C114.427 201.697 114.157 201.596 113.908 201.485C113.999 200.745 114.163 200.015 114.395 199.306L114.385 199.301Z" fill="black"/>
<path d="M156.811 212.933C159.207 212.403 161.65 209.164 160.85 206.292C160.049 203.419 156.032 201.739 153.742 202.736C151.453 203.732 149.879 208.316 150.992 210.214C152.232 212.318 155.057 213.304 156.811 212.933Z" fill="#FA6767"/>
<path opacity="0.12" d="M152.571 202.184C152.449 204.765 153.271 208.258 154.993 210.304C153.336 210.268 151.688 210.046 150.08 209.641C149.979 209.641 149.932 209.779 150.027 209.811C153.515 210.977 158.279 211.094 161.38 208.862C161.384 208.855 161.387 208.847 161.386 208.838C161.386 208.829 161.383 208.821 161.378 208.814C161.373 208.807 161.366 208.802 161.357 208.799C161.349 208.796 161.34 208.796 161.332 208.799C160.408 209.352 159.4 209.752 158.348 209.981C159.514 207.76 159.011 204.326 158.03 202.179C158.025 202.164 158.015 202.152 158.001 202.145C157.987 202.138 157.971 202.137 157.956 202.142C157.941 202.147 157.929 202.157 157.922 202.171C157.915 202.185 157.914 202.201 157.919 202.216C158.136 202.946 158.313 203.687 158.449 204.437C156.779 204.119 154.468 204.707 153.313 205.963C153.003 204.73 152.825 203.466 152.783 202.195C152.778 202.073 152.576 202.062 152.571 202.184ZM155.163 210.309C154.551 209.393 154.061 208.4 153.705 207.357C154.596 208.657 155.879 209.637 157.368 210.156C156.637 210.26 155.9 210.311 155.163 210.309ZM158.147 210.018C157.956 210.06 157.765 210.092 157.574 210.118C156.524 209.625 155.569 208.948 154.755 208.12C155.969 208.564 157.292 208.62 158.539 208.279C158.463 208.87 158.331 209.452 158.147 210.018ZM158.549 208.184C157.704 208.311 156.846 208.332 155.995 208.248C155.899 208.046 155.815 207.839 155.746 207.627C156.158 207.739 156.592 207.749 157.009 207.656C157.426 207.564 157.814 207.372 158.141 207.097C158.297 207.359 158.44 207.629 158.571 207.908C158.565 208.004 158.56 208.094 158.549 208.184ZM157.489 206.154C157.425 206.325 157.341 206.489 157.24 206.642C157.107 206.815 156.946 206.966 156.763 207.087C156.509 206.841 156.303 206.55 156.154 206.228C156.492 206.065 156.848 205.94 157.214 205.857L157.489 206.154ZM157.611 206.313C157.792 206.544 157.959 206.787 158.11 207.039C157.786 207.2 157.444 207.323 157.092 207.405L156.79 207.119C156.977 207.054 157.148 206.948 157.289 206.808C157.431 206.669 157.539 206.5 157.606 206.313H157.611ZM156.959 207.431C156.537 207.511 156.104 207.511 155.682 207.431C155.623 207.233 155.577 207.031 155.544 206.827C155.671 206.607 155.854 206.424 156.074 206.297C156.128 206.539 156.235 206.767 156.387 206.963C156.539 207.159 156.733 207.319 156.954 207.431H156.959ZM158.444 204.532C158.613 205.544 158.666 206.572 158.602 207.596C158.182 206.406 157.321 205.423 156.196 204.85C156.925 204.64 157.68 204.533 158.438 204.532H158.444ZM156.027 204.898C156.438 205.143 156.815 205.441 157.15 205.783C156.835 205.766 156.521 205.827 156.235 205.962C155.949 206.096 155.701 206.298 155.513 206.552C155.447 206.044 155.472 205.529 155.587 205.03L156.027 204.898ZM155.354 205.115C155.229 205.644 155.212 206.192 155.303 206.727C155.394 207.262 155.591 207.774 155.884 208.232C155.447 208.181 155.016 208.09 154.596 207.961C154.262 207.627 153.928 207.278 153.583 206.901C153.499 206.631 153.424 206.371 153.35 206.096C153.983 205.704 154.652 205.374 155.348 205.11L155.354 205.115Z" fill="black"/>
<path d="M193.386 207.092C190.996 206.562 188.547 203.324 189.348 200.451C190.148 197.579 194.165 195.899 196.455 196.9C198.745 197.902 200.319 202.476 199.206 204.373C197.971 206.477 195.141 207.463 193.386 207.092Z" fill="#FA6767"/>
<path opacity="0.12" d="M197.42 196.354C197.375 197.626 197.197 198.889 196.89 200.123C195.74 198.867 193.423 198.284 191.754 198.596C191.89 197.847 192.067 197.106 192.284 196.376C192.286 196.368 192.287 196.361 192.287 196.353C192.286 196.345 192.284 196.338 192.281 196.331C192.277 196.324 192.273 196.318 192.267 196.313C192.261 196.308 192.254 196.304 192.247 196.301C192.24 196.299 192.232 196.298 192.224 196.299C192.216 196.299 192.209 196.301 192.202 196.305C192.195 196.308 192.189 196.313 192.184 196.319C192.179 196.324 192.175 196.331 192.173 196.339C191.192 198.485 190.694 201.919 191.855 204.14C190.802 203.911 189.794 203.512 188.871 202.958C188.867 202.955 188.862 202.953 188.857 202.952C188.852 202.952 188.847 202.952 188.842 202.953C188.837 202.953 188.832 202.955 188.828 202.958C188.824 202.961 188.821 202.965 188.818 202.969C188.815 202.973 188.813 202.978 188.812 202.983C188.811 202.987 188.811 202.993 188.812 202.997C188.813 203.002 188.815 203.007 188.818 203.011C188.821 203.015 188.824 203.019 188.828 203.022C191.924 205.258 196.688 205.142 200.181 203.97C200.271 203.939 200.223 203.78 200.128 203.806C198.517 204.205 196.868 204.427 195.21 204.469C196.932 202.418 197.759 198.925 197.632 196.344C197.621 196.222 197.42 196.233 197.42 196.354ZM192.83 204.304C194.318 203.786 195.601 202.806 196.492 201.506C196.139 202.55 195.649 203.543 195.035 204.458C194.297 204.464 193.56 204.416 192.83 204.315V204.304ZM191.664 202.428C192.911 202.769 194.234 202.713 195.448 202.269C194.631 203.097 193.675 203.775 192.623 204.273C192.432 204.241 192.242 204.209 192.056 204.167C191.871 203.612 191.74 203.04 191.664 202.46V202.428ZM191.627 202.062C191.765 201.782 191.908 201.532 192.061 201.252C192.388 201.526 192.777 201.718 193.194 201.811C193.611 201.903 194.045 201.893 194.457 201.782C194.385 201.993 194.302 202.2 194.208 202.402C193.355 202.487 192.495 202.465 191.648 202.338C191.637 202.253 191.637 202.163 191.627 202.073V202.062ZM192.978 200.011C193.345 200.09 193.701 200.213 194.038 200.377C193.887 200.7 193.679 200.993 193.423 201.241C193.243 201.115 193.083 200.963 192.946 200.79C192.846 200.639 192.762 200.478 192.697 200.308C192.798 200.218 192.888 200.117 192.978 200.022V200.011ZM193.413 201.267C193.317 201.368 193.217 201.464 193.116 201.554C192.763 201.472 192.419 201.351 192.093 201.193C192.243 200.939 192.409 200.694 192.591 200.462C192.659 200.651 192.768 200.822 192.91 200.963C193.052 201.104 193.224 201.212 193.413 201.278V201.267ZM194.155 200.435C194.376 200.561 194.559 200.744 194.685 200.965C194.648 201.169 194.6 201.371 194.542 201.57C194.121 201.649 193.69 201.649 193.27 201.57C193.49 201.458 193.684 201.3 193.837 201.106C193.989 200.912 194.098 200.686 194.155 200.446V200.435ZM194.006 198.999C192.883 199.576 192.022 200.56 191.6 201.75C191.537 200.724 191.59 199.695 191.759 198.681C192.52 198.685 193.276 198.796 194.006 199.01V198.999ZM194.616 199.185C194.735 199.681 194.762 200.195 194.695 200.7C194.506 200.447 194.257 200.245 193.97 200.111C193.684 199.978 193.368 199.918 193.052 199.937C193.387 199.593 193.765 199.294 194.176 199.047C194.324 199.105 194.473 199.142 194.616 199.195V199.185ZM196.879 200.245C196.81 200.515 196.731 200.775 196.646 201.05C196.296 201.426 195.967 201.776 195.634 202.11C195.212 202.239 194.779 202.33 194.34 202.38C194.633 201.923 194.83 201.411 194.921 200.876C195.012 200.341 194.995 199.793 194.87 199.264C195.57 199.526 196.242 199.854 196.879 200.245Z" fill="black"/>
<path d="M94.234 216.971C91.8437 216.468 89.4004 213.203 90.1954 210.33C90.9904 207.458 95.0131 205.778 97.3027 206.78C99.5923 207.781 101.172 212.36 100.059 214.252C98.8185 216.362 95.9936 217.348 94.234 216.971Z" fill="#FA6767"/>
<path opacity="0.12" d="M98.2673 206.234C98.2282 207.505 98.0505 208.769 97.7373 210.002C96.5872 208.746 94.2764 208.163 92.6069 208.476C92.7345 207.728 92.9026 206.989 93.1104 206.26C93.116 206.245 93.1155 206.229 93.1091 206.215C93.1026 206.2 93.0907 206.189 93.0759 206.183C93.0612 206.178 93.0448 206.178 93.0304 206.185C93.016 206.191 93.0047 206.203 92.9991 206.218C92.0133 208.364 91.5151 211.804 92.6811 214.019C91.6285 213.791 90.6204 213.392 89.6972 212.837C89.6548 212.837 89.6124 212.875 89.6495 212.901C92.7447 215.138 97.5147 215.021 101.002 213.85C101.097 213.818 101.044 213.664 100.949 213.685C99.3414 214.09 97.6933 214.312 96.036 214.348C97.7585 212.297 98.58 208.804 98.4581 206.228C98.4687 206.106 98.2726 206.117 98.2673 206.234ZM93.6775 214.184C95.167 213.663 96.4518 212.681 97.3451 211.38C96.9909 212.424 96.5009 213.416 95.8876 214.332C95.1486 214.344 94.4098 214.3 93.6775 214.2V214.184ZM92.5115 212.302C93.7583 212.644 95.0807 212.591 96.2957 212.148C95.4795 212.976 94.5231 213.653 93.4708 214.147L92.9037 214.046C92.7196 213.483 92.5883 212.905 92.5115 212.318V212.302ZM92.4744 211.942C92.6122 211.656 92.7553 211.385 92.909 211.126C93.236 211.4 93.6246 211.592 94.0417 211.684C94.4589 211.777 94.8921 211.767 95.3046 211.656C95.2335 211.865 95.1503 212.07 95.0555 212.27C94.2048 212.357 93.3467 212.337 92.5009 212.212C92.485 212.138 92.485 212.048 92.4744 211.958V211.942ZM93.81 209.88C94.1763 209.963 94.5319 210.087 94.87 210.251C94.7175 210.57 94.5114 210.86 94.2605 211.11C94.0807 210.985 93.92 210.835 93.7835 210.664C93.6787 210.514 93.5949 210.35 93.5344 210.177C93.651 210.097 93.7358 209.997 93.81 209.88ZM94.2446 211.141L93.9478 211.422C93.5948 211.339 93.2519 211.218 92.9249 211.062C93.0786 210.809 93.2467 210.565 93.4284 210.331C93.494 210.524 93.6031 210.699 93.7474 210.844C93.8917 210.988 94.0673 211.097 94.2605 211.163L94.2446 211.141ZM94.9866 210.304C95.2064 210.431 95.3891 210.614 95.5166 210.834C95.4846 211.041 95.4368 211.244 95.3735 211.444C94.953 211.52 94.522 211.52 94.1015 211.444C94.325 211.335 94.5217 211.179 94.6775 210.985C94.8333 210.792 94.9443 210.567 95.0025 210.325L94.9866 210.304ZM94.8382 208.868C93.716 209.444 92.8569 210.429 92.4373 211.618C92.3738 210.595 92.4272 209.567 92.5963 208.555C93.3664 208.555 94.1324 208.667 94.87 208.889L94.8382 208.868ZM95.453 209.053C95.5677 209.552 95.5928 210.067 95.5272 210.574C95.3389 210.32 95.0901 210.116 94.8031 209.982C94.5162 209.847 94.2004 209.787 93.8842 209.806C94.2213 209.466 94.5986 209.169 95.0078 208.921L95.453 209.053ZM97.7108 210.113C97.6419 210.389 97.5624 210.643 97.4829 210.919C97.4829 210.919 97.4829 210.919 97.4564 210.919C97.1119 211.295 96.778 211.645 96.4441 211.979C96.0214 212.104 95.5888 212.193 95.1509 212.244C95.443 211.787 95.6404 211.276 95.7314 210.742C95.8225 210.208 95.8053 209.66 95.6809 209.133C96.3938 209.395 97.0791 209.727 97.7267 210.124L97.7108 210.113Z" fill="black"/>
<path d="M85.0862 186.809C88.2026 191.272 96.6879 192.109 117.861 196.27C120.787 196.842 130.38 177.258 127.301 176.49C123.4 175.515 108.056 172.579 106.906 172.504C97.2126 171.884 82.9715 183.788 85.0862 186.809Z" fill="#F7A9A0"/>
<path d="M123.066 175.52C123.066 175.52 132.039 176.872 136.528 179.045C142.544 181.949 146.54 186.936 148.087 189.115C151.32 193.688 155.974 206.976 152.375 208.984C149.126 210.802 145.056 196.98 145.056 196.98C145.056 196.98 151.532 210.389 147.213 211.857C142.893 213.325 139.077 197.017 139.077 197.017C139.077 197.017 145.437 210.94 140.731 211.751C137.185 212.366 132.898 197.78 132.898 197.78C132.898 197.78 138.266 209.79 134.647 210.574C130.645 211.47 125.849 198.22 125.849 198.22C116.309 198.67 111.581 194.982 108.528 191.961C107.791 191.24 123.066 175.52 123.066 175.52Z" fill="#F7A9A0"/>
<path d="M143.1 192.21C143.916 193.757 144.759 195.316 145.432 196.932C146.105 198.549 146.731 200.186 147.255 201.856C147.987 204.026 148.463 206.274 148.676 208.555C147.997 204.538 145.66 198.718 144.966 197.102C144.271 195.485 143.694 193.842 143.015 192.231C143.031 192.189 143.1 192.173 143.1 192.21Z" fill="#263238"/>
<path d="M137.233 194.547C138.192 196.572 139.22 198.543 140.09 200.605C140.959 202.667 141.595 204.686 142.316 206.795C142.374 206.954 142.268 206.933 142.204 206.769C141.399 204.691 140.492 202.836 139.666 200.764C138.839 198.692 138.076 196.598 137.185 194.568C137.169 194.537 137.222 194.51 137.233 194.547Z" fill="#263238"/>
<path d="M131.832 195.649C133.376 198.715 134.6 201.931 135.484 205.248C135.537 205.407 135.399 205.364 135.341 205.2C134.185 201.988 133.306 199.46 131.726 195.708C131.7 195.649 131.795 195.57 131.832 195.649Z" fill="#263238"/>
<path d="M141.844 182.458C142.89 183.138 143.866 183.919 144.759 184.79C145.665 185.649 146.502 186.58 147.26 187.572C147.647 188.065 147.992 188.585 148.352 189.099C148.713 189.613 149.025 190.159 149.296 190.689C149.895 191.785 150.381 192.939 150.748 194.134C150.435 193.604 150.218 193.015 149.873 192.491L149.428 191.68C149.274 191.415 149.105 191.15 148.946 190.895C148.293 189.85 147.585 188.84 146.826 187.869C146.084 186.894 145.284 185.956 144.457 185.05C144.038 184.594 143.614 184.149 143.174 183.714C142.734 183.279 142.305 182.877 141.844 182.458Z" fill="#263238"/>
<path d="M124.937 175.52L106.387 196.19C106.387 196.19 87.6302 191.881 84.8689 187.074C83.051 183.894 97.1702 171.084 107.828 172.579L124.937 175.52Z" fill="#FA6767"/>
<path d="M98.6277 176.585C98.6287 176.68 98.6015 176.773 98.5495 176.852C98.4975 176.932 98.4231 176.994 98.3357 177.03C98.2483 177.067 98.152 177.077 98.0589 177.059C97.9659 177.04 97.8804 176.995 97.8134 176.928C97.7464 176.861 97.7009 176.775 97.6826 176.682C97.6644 176.589 97.6743 176.493 97.711 176.406C97.7478 176.318 97.8097 176.244 97.889 176.192C97.9682 176.14 98.0612 176.113 98.156 176.114C98.2811 176.114 98.4011 176.163 98.4895 176.252C98.578 176.34 98.6277 176.46 98.6277 176.585ZM105.788 176.114C105.695 176.114 105.603 176.141 105.526 176.193C105.448 176.245 105.388 176.319 105.352 176.405C105.316 176.491 105.307 176.586 105.325 176.677C105.344 176.769 105.388 176.853 105.454 176.919C105.52 176.985 105.604 177.03 105.696 177.048C105.787 177.066 105.882 177.057 105.968 177.021C106.055 176.985 106.128 176.925 106.18 176.847C106.232 176.77 106.26 176.679 106.26 176.585C106.26 176.46 106.21 176.34 106.122 176.252C106.033 176.163 105.913 176.114 105.788 176.114ZM113.42 176.114C113.327 176.115 113.236 176.143 113.159 176.196C113.083 176.248 113.023 176.322 112.988 176.409C112.953 176.495 112.945 176.589 112.963 176.681C112.982 176.772 113.027 176.855 113.094 176.921C113.16 176.986 113.244 177.031 113.335 177.048C113.427 177.066 113.521 177.056 113.607 177.021C113.693 176.985 113.766 176.924 113.818 176.847C113.869 176.769 113.897 176.678 113.897 176.585C113.897 176.523 113.885 176.461 113.861 176.404C113.837 176.346 113.801 176.294 113.757 176.25C113.713 176.206 113.66 176.171 113.602 176.148C113.544 176.125 113.482 176.113 113.42 176.114ZM121.057 176.114C120.964 176.114 120.873 176.141 120.795 176.193C120.718 176.245 120.657 176.319 120.621 176.405C120.586 176.491 120.576 176.586 120.595 176.677C120.613 176.769 120.658 176.853 120.724 176.919C120.79 176.985 120.874 177.03 120.965 177.048C121.057 177.066 121.152 177.057 121.238 177.021C121.324 176.985 121.398 176.925 121.449 176.847C121.501 176.77 121.529 176.679 121.529 176.585C121.529 176.46 121.479 176.34 121.391 176.252C121.302 176.163 121.182 176.114 121.057 176.114ZM90.5187 186.327C90.4256 186.328 90.3349 186.356 90.2581 186.409C90.1812 186.461 90.1216 186.535 90.0867 186.622C90.0518 186.708 90.0432 186.803 90.062 186.894C90.0808 186.985 90.1261 187.068 90.1923 187.134C90.2585 187.199 90.3425 187.244 90.4339 187.261C90.5252 187.279 90.6198 187.27 90.7057 187.234C90.7916 187.198 90.8649 187.137 90.9165 187.06C90.9681 186.982 90.9957 186.892 90.9957 186.798C90.9957 186.736 90.9833 186.674 90.9593 186.617C90.9352 186.559 90.9 186.507 90.8556 186.463C90.8113 186.419 90.7587 186.385 90.7008 186.361C90.643 186.338 90.5811 186.326 90.5187 186.327ZM98.156 186.327C98.0627 186.327 97.9715 186.354 97.8939 186.406C97.8163 186.458 97.7559 186.532 97.7202 186.618C97.6845 186.704 97.6751 186.799 97.6933 186.89C97.7115 186.982 97.7565 187.066 97.8224 187.132C97.8884 187.198 97.9725 187.243 98.064 187.261C98.1555 187.279 98.2503 187.27 98.3365 187.234C98.4227 187.199 98.4963 187.138 98.5482 187.061C98.6 186.983 98.6277 186.892 98.6277 186.798C98.6277 186.673 98.578 186.553 98.4895 186.465C98.4011 186.376 98.2811 186.327 98.156 186.327ZM105.788 186.327C105.695 186.327 105.603 186.354 105.526 186.406C105.448 186.458 105.388 186.532 105.352 186.618C105.316 186.704 105.307 186.799 105.325 186.89C105.344 186.982 105.388 187.066 105.454 187.132C105.52 187.198 105.604 187.243 105.696 187.261C105.787 187.279 105.882 187.27 105.968 187.234C106.055 187.199 106.128 187.138 106.18 187.061C106.232 186.983 106.26 186.892 106.26 186.798C106.26 186.673 106.21 186.553 106.122 186.465C106.033 186.376 105.913 186.327 105.788 186.327ZM113.42 186.327C113.327 186.328 113.236 186.356 113.159 186.409C113.083 186.461 113.023 186.535 112.988 186.622C112.953 186.708 112.945 186.803 112.963 186.894C112.982 186.985 113.027 187.068 113.094 187.134C113.16 187.199 113.244 187.244 113.335 187.261C113.427 187.279 113.521 187.27 113.607 187.234C113.693 187.198 113.766 187.137 113.818 187.06C113.869 186.982 113.897 186.892 113.897 186.798C113.897 186.736 113.885 186.674 113.861 186.617C113.837 186.559 113.801 186.507 113.757 186.463C113.713 186.419 113.66 186.385 113.602 186.361C113.544 186.338 113.482 186.326 113.42 186.327ZM94.34 181.435C94.2454 181.435 94.153 181.463 94.0744 181.516C93.9959 181.568 93.9347 181.643 93.8988 181.731C93.8629 181.818 93.8537 181.914 93.8726 182.007C93.8914 182.1 93.9374 182.185 94.0046 182.251C94.0718 182.318 94.1573 182.363 94.2502 182.38C94.3431 182.398 94.4392 182.388 94.5262 182.351C94.6133 182.314 94.6874 182.252 94.7392 182.173C94.7909 182.094 94.818 182.001 94.817 181.907C94.817 181.844 94.8046 181.782 94.7806 181.725C94.7565 181.667 94.7213 181.615 94.677 181.571C94.6326 181.527 94.58 181.493 94.5221 181.469C94.4643 181.446 94.4024 181.434 94.34 181.435ZM101.977 181.435C101.882 181.434 101.79 181.461 101.71 181.513C101.631 181.565 101.569 181.639 101.532 181.727C101.496 181.814 101.486 181.911 101.504 182.004C101.522 182.097 101.568 182.182 101.635 182.249C101.702 182.316 101.787 182.362 101.88 182.38C101.973 182.398 102.07 182.388 102.157 182.351C102.244 182.315 102.319 182.253 102.371 182.174C102.423 182.094 102.45 182.001 102.449 181.907C102.449 181.844 102.437 181.782 102.413 181.725C102.389 181.667 102.353 181.615 102.309 181.571C102.265 181.527 102.212 181.493 102.154 181.469C102.096 181.446 102.034 181.434 101.972 181.435H101.977ZM109.609 181.435C109.515 181.435 109.422 181.463 109.344 181.516C109.265 181.568 109.204 181.643 109.168 181.731C109.132 181.818 109.123 181.914 109.142 182.007C109.161 182.1 109.207 182.185 109.274 182.251C109.341 182.318 109.427 182.363 109.52 182.38C109.612 182.398 109.708 182.388 109.796 182.351C109.883 182.314 109.957 182.252 110.008 182.173C110.06 182.094 110.087 182.001 110.086 181.907C110.086 181.844 110.074 181.781 110.049 181.724C110.025 181.666 109.989 181.613 109.944 181.569C109.899 181.525 109.846 181.491 109.788 181.468C109.729 181.445 109.667 181.433 109.604 181.435H109.609ZM117.247 181.435C117.152 181.434 117.059 181.461 116.98 181.513C116.9 181.565 116.838 181.639 116.802 181.727C116.765 181.814 116.755 181.911 116.773 182.004C116.791 182.097 116.837 182.182 116.904 182.249C116.971 182.316 117.057 182.362 117.15 182.38C117.243 182.398 117.339 182.388 117.426 182.351C117.514 182.315 117.588 182.253 117.64 182.174C117.692 182.094 117.719 182.001 117.718 181.907C117.718 181.844 117.706 181.782 117.682 181.725C117.658 181.667 117.623 181.615 117.578 181.571C117.534 181.527 117.481 181.493 117.423 181.469C117.366 181.446 117.304 181.434 117.241 181.435H117.247ZM94.34 191.648C94.2454 191.648 94.153 191.676 94.0744 191.729C93.9959 191.781 93.9347 191.856 93.8988 191.944C93.8629 192.031 93.8537 192.127 93.8726 192.22C93.8914 192.313 93.9374 192.398 94.0046 192.464C94.0718 192.531 94.1573 192.576 94.2502 192.593C94.3431 192.611 94.4392 192.601 94.5262 192.564C94.6133 192.527 94.6874 192.465 94.7392 192.386C94.7909 192.307 94.818 192.214 94.817 192.12C94.817 192.057 94.8046 191.995 94.7806 191.938C94.7565 191.88 94.7213 191.828 94.677 191.784C94.6326 191.74 94.58 191.706 94.5221 191.682C94.4643 191.659 94.4024 191.647 94.34 191.648ZM101.977 191.648C101.882 191.647 101.79 191.674 101.71 191.726C101.631 191.778 101.569 191.853 101.532 191.94C101.496 192.027 101.486 192.124 101.504 192.217C101.522 192.31 101.568 192.395 101.635 192.462C101.702 192.529 101.787 192.575 101.88 192.593C101.973 192.611 102.07 192.601 102.157 192.565C102.244 192.528 102.319 192.466 102.371 192.387C102.423 192.307 102.45 192.214 102.449 192.12C102.449 192.057 102.437 191.995 102.413 191.938C102.389 191.88 102.353 191.828 102.309 191.784C102.265 191.74 102.212 191.706 102.154 191.682C102.096 191.659 102.034 191.647 101.972 191.648H101.977ZM109.615 191.648C109.488 191.648 109.367 191.698 109.277 191.788C109.188 191.877 109.138 191.998 109.138 192.125C109.138 192.187 109.15 192.249 109.174 192.307C109.198 192.364 109.233 192.416 109.278 192.46C109.322 192.504 109.375 192.539 109.432 192.562C109.49 192.586 109.552 192.597 109.615 192.597L110.081 192.067C110.068 191.95 110.013 191.843 109.926 191.765C109.839 191.687 109.726 191.643 109.609 191.643L109.615 191.648Z" fill="white"/>
<path d="M95.1191 175.923C96.8363 174.677 101.675 171.773 107.839 172.547C107.892 172.547 107.897 172.642 107.839 172.637C103.186 172.504 96.9052 174.937 95.1191 175.997C95.1138 176.024 95.0767 175.96 95.1191 175.923Z" fill="#263238"/>
<path d="M101.32 192.713C103.239 190.334 105.279 188.06 107.33 185.791C109.381 183.523 111.427 181.244 113.537 179.023C114.724 177.767 115.911 176.506 117.146 175.313C117.178 175.282 117.236 175.313 117.209 175.366C115.296 177.741 113.256 180.03 111.226 182.309C109.196 184.588 107.129 186.857 105.051 189.104C103.875 190.371 102.677 191.616 101.442 192.814C101.378 192.872 101.267 192.782 101.32 192.713Z" fill="#263238"/>
<path d="M124.974 175.25C123.835 174.907 122.673 174.643 121.497 174.46C120.326 174.237 119.149 174.041 117.978 173.851C115.641 173.474 110.728 172.414 106.408 172.425C106.36 172.425 106.604 172.658 106.652 172.658C108.708 172.547 123.442 175.478 124.672 175.562C124.623 175.641 124.578 175.722 124.539 175.806C124.539 175.87 124.576 175.944 124.64 175.902C124.794 175.801 124.9 175.674 125.043 175.562C125.07 175.542 125.091 175.515 125.103 175.483C125.115 175.451 125.118 175.417 125.11 175.384C125.103 175.35 125.086 175.32 125.062 175.296C125.038 175.273 125.007 175.256 124.974 175.25Z" fill="#263238"/>
<path d="M140.026 136.21C157.749 151.67 171.688 170.771 170.766 175.547C169.096 184.44 157.41 184.996 155.619 183.073C148.442 175.297 140.869 160.235 132.664 143.429C125.334 128.408 134.191 131.127 140.026 136.21Z" fill="#FA6767"/>
<path d="M136.798 135.733C136.799 135.828 136.772 135.921 136.72 136C136.668 136.079 136.594 136.141 136.506 136.178C136.419 136.215 136.323 136.225 136.23 136.206C136.137 136.188 136.051 136.143 135.984 136.076C135.917 136.009 135.871 135.923 135.853 135.83C135.835 135.737 135.845 135.641 135.882 135.553C135.918 135.466 135.98 135.391 136.06 135.339C136.139 135.287 136.232 135.26 136.327 135.261C136.452 135.261 136.572 135.311 136.66 135.399C136.749 135.488 136.798 135.608 136.798 135.733ZM136.327 145.474C136.232 145.473 136.139 145.501 136.06 145.553C135.98 145.605 135.918 145.679 135.882 145.766C135.845 145.854 135.835 145.95 135.853 146.043C135.871 146.136 135.917 146.222 135.984 146.289C136.051 146.356 136.137 146.401 136.23 146.419C136.323 146.438 136.419 146.428 136.506 146.391C136.594 146.354 136.668 146.292 136.72 146.213C136.772 146.134 136.799 146.041 136.798 145.946C136.798 145.821 136.749 145.701 136.66 145.613C136.572 145.524 136.452 145.474 136.327 145.474ZM143.959 145.474C143.864 145.474 143.772 145.503 143.693 145.555C143.614 145.608 143.553 145.683 143.517 145.77C143.481 145.858 143.472 145.954 143.491 146.046C143.51 146.139 143.556 146.224 143.623 146.291C143.69 146.357 143.776 146.402 143.869 146.42C143.962 146.438 144.058 146.427 144.145 146.391C144.232 146.354 144.306 146.292 144.358 146.213C144.41 146.133 144.437 146.041 144.436 145.946C144.436 145.884 144.423 145.822 144.399 145.764C144.375 145.707 144.34 145.655 144.296 145.611C144.251 145.567 144.199 145.532 144.141 145.509C144.083 145.485 144.021 145.474 143.959 145.474ZM132.5 140.583C132.405 140.581 132.312 140.609 132.233 140.661C132.154 140.713 132.092 140.787 132.055 140.875C132.018 140.962 132.008 141.058 132.027 141.151C132.045 141.244 132.09 141.33 132.157 141.397C132.224 141.464 132.31 141.509 132.403 141.528C132.496 141.546 132.592 141.536 132.68 141.499C132.767 141.462 132.841 141.4 132.893 141.321C132.945 141.242 132.973 141.149 132.972 141.054C132.972 140.929 132.922 140.809 132.834 140.721C132.745 140.632 132.625 140.583 132.5 140.583ZM140.132 140.583C140.037 140.581 139.944 140.609 139.865 140.661C139.786 140.713 139.724 140.787 139.687 140.875C139.65 140.962 139.64 141.058 139.659 141.151C139.677 141.244 139.722 141.33 139.789 141.397C139.856 141.464 139.942 141.509 140.035 141.528C140.128 141.546 140.224 141.536 140.312 141.499C140.399 141.462 140.473 141.4 140.525 141.321C140.577 141.242 140.605 141.149 140.604 141.054C140.604 140.931 140.555 140.813 140.469 140.724C140.383 140.636 140.266 140.585 140.143 140.583H140.132ZM143.948 155.688C143.853 155.688 143.761 155.716 143.682 155.768C143.604 155.821 143.543 155.896 143.507 155.983C143.471 156.071 143.462 156.167 143.481 156.26C143.499 156.352 143.545 156.437 143.613 156.504C143.68 156.57 143.765 156.615 143.858 156.633C143.951 156.651 144.047 156.641 144.134 156.604C144.221 156.567 144.295 156.505 144.347 156.426C144.399 156.347 144.426 156.254 144.425 156.159C144.425 156.035 144.376 155.916 144.289 155.828C144.201 155.739 144.083 155.689 143.959 155.688H143.948ZM151.585 155.688C151.49 155.686 151.398 155.714 151.318 155.766C151.239 155.818 151.177 155.892 151.14 155.979C151.104 156.067 151.094 156.163 151.112 156.256C151.13 156.349 151.176 156.435 151.243 156.502C151.31 156.569 151.395 156.614 151.488 156.633C151.581 156.651 151.678 156.641 151.765 156.604C151.852 156.567 151.927 156.505 151.979 156.426C152.031 156.347 152.058 156.254 152.057 156.159C152.057 156.097 152.045 156.035 152.021 155.977C151.997 155.92 151.961 155.868 151.917 155.824C151.873 155.78 151.82 155.745 151.762 155.722C151.704 155.698 151.642 155.687 151.58 155.688H151.585ZM159.053 155.714C158.963 155.748 158.885 155.809 158.83 155.889C158.775 155.968 158.746 156.063 158.746 156.159C158.746 156.284 158.795 156.404 158.884 156.493C158.972 156.581 159.092 156.631 159.217 156.631C159.299 156.631 159.379 156.61 159.451 156.57C159.522 156.53 159.582 156.472 159.625 156.403L159.053 155.714ZM140.132 150.796C140.037 150.795 139.944 150.822 139.865 150.874C139.786 150.926 139.724 151 139.687 151.088C139.65 151.175 139.64 151.271 139.659 151.364C139.677 151.457 139.722 151.543 139.789 151.61C139.856 151.677 139.942 151.722 140.035 151.741C140.128 151.759 140.224 151.749 140.312 151.712C140.399 151.675 140.473 151.614 140.525 151.534C140.577 151.455 140.605 151.362 140.604 151.267C140.604 151.144 140.555 151.026 140.469 150.937C140.383 150.849 140.266 150.798 140.143 150.796H140.132ZM147.764 150.796C147.669 150.796 147.577 150.824 147.498 150.876C147.42 150.929 147.359 151.004 147.323 151.091C147.287 151.179 147.278 151.275 147.297 151.368C147.315 151.46 147.361 151.545 147.429 151.612C147.496 151.678 147.581 151.723 147.674 151.741C147.767 151.759 147.863 151.749 147.95 151.712C148.037 151.675 148.111 151.613 148.163 151.534C148.215 151.455 148.242 151.362 148.241 151.267C148.241 151.143 148.192 151.024 148.105 150.936C148.017 150.847 147.899 150.797 147.775 150.796H147.764ZM154.998 151.018C154.954 151.094 154.93 151.18 154.93 151.267C154.929 151.33 154.941 151.392 154.964 151.449C154.987 151.507 155.022 151.56 155.066 151.604C155.11 151.649 155.162 151.684 155.22 151.708C155.277 151.732 155.339 151.744 155.401 151.744C155.469 151.745 155.536 151.731 155.597 151.702C155.412 151.469 155.21 151.246 155.009 151.018H154.998ZM144.16 165.932C144.261 166.107 144.351 166.282 144.446 166.462C144.449 166.436 144.449 166.409 144.446 166.383C144.45 166.288 144.425 166.193 144.374 166.113C144.323 166.032 144.248 165.969 144.16 165.932ZM151.58 165.89C151.485 165.889 151.392 165.916 151.313 165.968C151.234 166.02 151.172 166.095 151.135 166.182C151.098 166.269 151.088 166.366 151.107 166.459C151.125 166.552 151.17 166.637 151.237 166.704C151.304 166.771 151.39 166.817 151.483 166.835C151.576 166.853 151.672 166.843 151.76 166.807C151.847 166.77 151.921 166.708 151.973 166.629C152.026 166.549 152.053 166.456 152.052 166.362C152.052 166.237 152.002 166.117 151.914 166.028C151.825 165.94 151.705 165.89 151.58 165.89ZM159.212 165.89C159.117 165.889 159.024 165.916 158.945 165.968C158.866 166.02 158.804 166.095 158.767 166.182C158.73 166.269 158.72 166.366 158.739 166.459C158.757 166.552 158.802 166.637 158.869 166.704C158.936 166.771 159.022 166.817 159.115 166.835C159.208 166.853 159.304 166.843 159.392 166.807C159.479 166.77 159.553 166.708 159.605 166.629C159.657 166.549 159.685 166.456 159.684 166.362C159.684 166.239 159.636 166.122 159.551 166.034C159.466 165.946 159.35 165.894 159.228 165.89H159.212ZM166.664 165.922C166.565 165.966 166.485 166.043 166.435 166.139C166.386 166.236 166.371 166.346 166.393 166.452C166.414 166.558 166.471 166.653 166.554 166.722C166.637 166.792 166.741 166.831 166.849 166.833C166.968 166.834 167.083 166.79 167.173 166.711C167.024 166.462 166.855 166.197 166.68 165.932L166.664 165.922ZM147.759 160.998C147.664 160.998 147.572 161.026 147.493 161.079C147.415 161.132 147.353 161.206 147.317 161.294C147.282 161.381 147.272 161.477 147.291 161.57C147.31 161.663 147.356 161.748 147.423 161.814C147.491 161.881 147.576 161.926 147.669 161.944C147.762 161.961 147.858 161.951 147.945 161.914C148.032 161.877 148.106 161.815 148.158 161.736C148.21 161.657 148.237 161.564 148.236 161.47C148.233 161.348 148.184 161.233 148.098 161.147C148.012 161.061 147.896 161.011 147.775 161.009L147.759 160.998ZM155.396 160.998C155.301 160.997 155.208 161.024 155.129 161.076C155.05 161.128 154.988 161.203 154.951 161.29C154.914 161.377 154.904 161.474 154.923 161.567C154.941 161.66 154.986 161.745 155.053 161.812C155.12 161.879 155.206 161.925 155.299 161.943C155.392 161.961 155.488 161.952 155.576 161.915C155.663 161.878 155.737 161.816 155.79 161.737C155.842 161.658 155.869 161.565 155.868 161.47C155.865 161.349 155.816 161.234 155.732 161.149C155.647 161.063 155.532 161.013 155.412 161.009L155.396 160.998ZM163.5 161.374L163.277 161.083C163.205 161.04 163.122 161.018 163.039 161.019C162.921 161.032 162.813 161.087 162.734 161.175C162.655 161.262 162.612 161.376 162.612 161.494C162.612 161.611 162.655 161.725 162.734 161.813C162.813 161.9 162.921 161.956 163.039 161.968C163.164 161.967 163.284 161.917 163.373 161.829C163.462 161.741 163.513 161.621 163.516 161.496C163.519 161.459 163.519 161.422 163.516 161.385L163.5 161.374ZM151.58 176.114C151.487 176.114 151.395 176.141 151.318 176.193C151.24 176.245 151.18 176.319 151.144 176.405C151.108 176.491 151.099 176.586 151.117 176.677C151.136 176.769 151.18 176.853 151.246 176.919C151.312 176.985 151.396 177.03 151.488 177.048C151.579 177.066 151.674 177.057 151.76 177.021C151.847 176.985 151.92 176.925 151.972 176.847C152.024 176.77 152.052 176.679 152.052 176.585C152.052 176.46 152.002 176.34 151.914 176.252C151.825 176.163 151.705 176.114 151.58 176.114ZM159.212 176.114C159.119 176.114 159.027 176.141 158.95 176.193C158.872 176.245 158.812 176.319 158.776 176.405C158.74 176.491 158.731 176.586 158.749 176.677C158.768 176.769 158.812 176.853 158.878 176.919C158.944 176.985 159.028 177.03 159.12 177.048C159.211 177.066 159.306 177.057 159.392 177.021C159.479 176.985 159.552 176.925 159.604 176.847C159.656 176.77 159.684 176.679 159.684 176.585C159.684 176.463 159.636 176.345 159.551 176.257C159.466 176.169 159.35 176.118 159.228 176.114H159.212ZM166.849 176.114C166.756 176.114 166.665 176.141 166.587 176.193C166.51 176.245 166.449 176.319 166.413 176.405C166.378 176.491 166.368 176.586 166.387 176.677C166.405 176.769 166.45 176.853 166.516 176.919C166.582 176.985 166.666 177.03 166.757 177.048C166.849 177.066 166.944 177.057 167.03 177.021C167.116 176.985 167.19 176.925 167.241 176.847C167.293 176.77 167.321 176.679 167.321 176.585C167.321 176.463 167.274 176.345 167.188 176.257C167.103 176.169 166.987 176.118 166.865 176.114H166.849ZM147.769 171.222C147.675 171.222 147.582 171.25 147.504 171.303C147.425 171.355 147.364 171.43 147.328 171.517C147.292 171.605 147.283 171.701 147.302 171.794C147.321 171.886 147.367 171.971 147.434 172.038C147.501 172.104 147.587 172.149 147.68 172.167C147.772 172.185 147.868 172.175 147.956 172.138C148.043 172.101 148.117 172.039 148.168 171.96C148.22 171.881 148.247 171.788 148.246 171.694C148.246 171.568 148.197 171.448 148.108 171.36C148.02 171.271 147.9 171.222 147.775 171.222H147.769ZM155.407 171.222C155.312 171.221 155.219 171.248 155.14 171.3C155.06 171.352 154.998 171.426 154.962 171.514C154.925 171.601 154.915 171.698 154.933 171.791C154.951 171.884 154.997 171.969 155.064 172.036C155.131 172.103 155.217 172.149 155.31 172.167C155.403 172.185 155.499 172.175 155.586 172.138C155.674 172.102 155.748 172.04 155.8 171.96C155.852 171.881 155.879 171.788 155.878 171.694C155.878 171.569 155.829 171.45 155.742 171.362C155.655 171.274 155.536 171.223 155.412 171.222H155.407ZM163.039 171.222C162.944 171.222 162.852 171.25 162.773 171.303C162.694 171.355 162.633 171.43 162.597 171.517C162.561 171.605 162.552 171.701 162.571 171.794C162.59 171.886 162.636 171.971 162.703 172.038C162.77 172.104 162.856 172.149 162.949 172.167C163.042 172.185 163.138 172.175 163.225 172.138C163.312 172.101 163.386 172.039 163.438 171.96C163.49 171.881 163.517 171.788 163.516 171.694C163.516 171.568 163.466 171.448 163.377 171.36C163.289 171.271 163.169 171.222 163.044 171.222H163.039ZM155.407 181.435C155.312 181.434 155.219 181.461 155.14 181.513C155.06 181.565 154.998 181.64 154.962 181.727C154.925 181.814 154.915 181.911 154.933 182.004C154.951 182.097 154.997 182.182 155.064 182.249C155.131 182.316 155.217 182.362 155.31 182.38C155.403 182.398 155.499 182.388 155.586 182.352C155.674 182.315 155.748 182.253 155.8 182.174C155.852 182.094 155.879 182.001 155.878 181.907C155.878 181.782 155.829 181.663 155.742 181.575C155.655 181.487 155.536 181.436 155.412 181.435H155.407ZM163.039 181.435C162.944 181.435 162.852 181.463 162.773 181.516C162.694 181.568 162.633 181.643 162.597 181.731C162.561 181.818 162.552 181.914 162.571 182.007C162.59 182.1 162.636 182.185 162.703 182.251C162.77 182.318 162.856 182.363 162.949 182.38C163.042 182.398 163.138 182.388 163.225 182.351C163.312 182.314 163.386 182.252 163.438 182.173C163.49 182.094 163.517 182.001 163.516 181.907C163.516 181.781 163.466 181.662 163.377 181.573C163.289 181.485 163.169 181.435 163.044 181.435H163.039Z" fill="white"/>
<path d="M152.693 179.601C151.395 177.587 150.17 175.509 148.93 173.453C147.69 171.397 146.46 169.33 145.252 167.252C142.867 163.145 140.651 158.947 138.515 154.707C137.307 152.306 136.077 149.937 134.927 147.488C134.89 147.409 134.763 147.488 134.79 147.547C135.903 150.373 137.1 153.154 138.383 155.889L138.33 155.82C138.044 155.433 137.758 155.046 137.477 154.654C136.92 153.88 136.417 153.091 135.887 152.28C135.85 152.216 135.749 152.28 135.786 152.343C136.359 153.446 137.007 154.509 137.726 155.523C138.077 155.997 138.456 156.45 138.86 156.88L138.897 156.912C139.485 158.131 140.084 159.345 140.715 160.548C142.915 164.821 145.328 168.981 147.944 173.013C148.686 174.142 149.434 175.266 150.213 176.373C150.992 177.481 151.803 178.552 152.629 179.643C152.64 179.712 152.735 179.67 152.693 179.601Z" fill="#263238"/>
<path d="M158.555 181.35C155.195 176.532 156.88 166.95 160.59 143.948C161.12 140.768 185.256 140.519 184.885 143.948C184.419 148.262 180.115 165.312 178.997 167.798C173.501 180.094 160.828 184.62 158.555 181.35Z" fill="#F7A9A0"/>
<path d="M184.101 146.916C185.102 144.34 189.708 130.062 189.931 126.442C190.153 122.822 190.074 112.355 187.318 111.899C184.562 111.443 184.345 114.506 184.345 114.506C184.345 114.506 183.608 110.092 180.794 109.88C177.979 109.668 177.794 114.453 177.794 114.453C177.794 114.453 176.707 109.975 173.882 109.97C171.057 109.964 171.72 114.798 171.72 114.798C171.72 114.798 170.914 110.659 168.588 111.618C165.789 112.784 168.132 120.252 167.575 124.227C167.448 125.133 163.717 142.353 163.717 142.353L184.101 146.916Z" fill="#F7A9A0"/>
<path d="M171.646 114.385C173.358 119.881 173.156 122.578 171.693 128.048C171.667 128.159 171.821 128.223 171.858 128.117C173.776 122.886 174.508 119.536 171.911 114.289C171.784 114.029 171.566 114.125 171.646 114.385Z" fill="#263238"/>
<path d="M177.661 114.019C178.939 119.881 178.748 122.812 177.661 128.657C177.661 128.737 177.788 128.774 177.81 128.689C179.4 123.05 180.041 119.679 177.995 114.003C177.873 113.743 177.603 113.754 177.661 114.019Z" fill="#263238"/>
<path d="M184.292 114.798C185.118 120.564 185.044 123.808 183.232 129.32C183.221 129.347 183.222 129.376 183.233 129.403C183.244 129.429 183.266 129.45 183.293 129.46C183.319 129.471 183.349 129.47 183.375 129.459C183.402 129.448 183.422 129.426 183.433 129.399C185.823 123.935 185.945 119.918 184.461 114.793C184.366 114.443 184.239 114.438 184.292 114.798Z" fill="#263238"/>
<path d="M160.24 146.858C160.24 146.858 158.327 139.909 158.163 136.666C157.998 133.422 161.825 121.132 164.523 121.826C168.015 122.7 167.204 130.237 166.325 133.873C166.325 133.873 174.402 135.887 174.99 141.42C175.578 146.953 160.24 146.858 160.24 146.858Z" fill="#F7A9A0"/>
<path d="M165.413 122.361C168.021 125.451 166.558 130.152 165.943 133.745C165.931 133.798 165.933 133.853 165.947 133.904C165.961 133.956 165.987 134.004 166.023 134.044C166.06 134.083 166.105 134.113 166.156 134.132C166.206 134.15 166.261 134.156 166.314 134.148C169.642 135.208 174.031 137.694 175.112 141.219C175.119 141.237 175.132 141.253 175.15 141.263C175.167 141.273 175.188 141.276 175.208 141.272C175.227 141.269 175.245 141.258 175.258 141.242C175.27 141.226 175.277 141.207 175.276 141.187C174.63 137.244 170.506 134.456 166.796 133.523C167.459 129.845 168.72 125.043 165.413 122.335C165.418 122.319 165.392 122.34 165.413 122.361Z" fill="#263238"/>
<path d="M185.267 151.739L157.256 159.689C157.256 159.689 151.67 178.048 155.221 182.654C159.021 187.578 176.654 179.946 180.163 169.218L185.267 151.739Z" fill="#FA6767"/>
<path d="M174.969 156.159C174.969 156.252 174.941 156.344 174.889 156.421C174.838 156.499 174.764 156.559 174.678 156.595C174.591 156.631 174.497 156.64 174.405 156.622C174.314 156.604 174.23 156.559 174.164 156.493C174.098 156.427 174.053 156.343 174.035 156.251C174.016 156.16 174.026 156.065 174.061 155.979C174.097 155.892 174.158 155.819 174.235 155.767C174.313 155.715 174.404 155.687 174.497 155.687C174.622 155.687 174.742 155.737 174.831 155.826C174.919 155.914 174.969 156.034 174.969 156.159ZM182.129 155.687C182.035 155.687 181.942 155.716 181.864 155.768C181.785 155.821 181.724 155.896 181.688 155.983C181.652 156.071 181.643 156.167 181.662 156.259C181.681 156.352 181.727 156.437 181.794 156.504C181.861 156.57 181.947 156.615 182.039 156.633C182.132 156.651 182.228 156.641 182.315 156.604C182.402 156.567 182.477 156.505 182.528 156.426C182.58 156.346 182.607 156.254 182.606 156.159C182.606 156.097 182.594 156.035 182.57 155.977C182.546 155.92 182.51 155.868 182.466 155.824C182.422 155.78 182.369 155.745 182.311 155.722C182.253 155.698 182.192 155.687 182.129 155.687ZM159.228 165.89C159.133 165.889 159.04 165.916 158.961 165.968C158.882 166.02 158.82 166.095 158.783 166.182C158.746 166.269 158.736 166.366 158.754 166.459C158.773 166.552 158.818 166.637 158.885 166.704C158.952 166.771 159.038 166.817 159.131 166.835C159.224 166.853 159.32 166.843 159.408 166.807C159.495 166.77 159.569 166.708 159.621 166.629C159.673 166.549 159.701 166.456 159.7 166.362C159.7 166.237 159.65 166.117 159.561 166.028C159.473 165.94 159.353 165.89 159.228 165.89ZM166.865 165.89C166.77 165.889 166.677 165.916 166.598 165.968C166.519 166.02 166.457 166.095 166.42 166.182C166.383 166.269 166.374 166.366 166.392 166.459C166.41 166.552 166.456 166.637 166.523 166.704C166.59 166.771 166.675 166.817 166.768 166.835C166.861 166.853 166.957 166.843 167.045 166.807C167.132 166.77 167.207 166.708 167.259 166.629C167.311 166.549 167.338 166.456 167.337 166.362C167.337 166.237 167.287 166.117 167.199 166.028C167.11 165.94 166.99 165.89 166.865 165.89ZM174.497 165.89C174.402 165.889 174.309 165.916 174.23 165.968C174.151 166.02 174.089 166.095 174.052 166.182C174.015 166.269 174.006 166.366 174.024 166.459C174.042 166.552 174.088 166.637 174.155 166.704C174.222 166.771 174.307 166.817 174.4 166.835C174.493 166.853 174.589 166.843 174.677 166.807C174.764 166.77 174.839 166.708 174.891 166.629C174.943 166.549 174.97 166.456 174.969 166.362C174.969 166.237 174.919 166.117 174.831 166.028C174.742 165.94 174.622 165.89 174.497 165.89ZM163.044 160.998C162.949 160.998 162.857 161.026 162.778 161.079C162.7 161.131 162.639 161.206 162.603 161.294C162.567 161.381 162.558 161.477 162.576 161.57C162.595 161.663 162.641 161.748 162.708 161.814C162.776 161.881 162.861 161.926 162.954 161.944C163.047 161.961 163.143 161.951 163.23 161.914C163.317 161.877 163.391 161.815 163.443 161.736C163.495 161.657 163.522 161.564 163.521 161.47C163.518 161.346 163.466 161.228 163.377 161.141C163.288 161.055 163.168 161.007 163.044 161.009V160.998ZM170.681 160.998C170.586 160.997 170.493 161.024 170.414 161.076C170.335 161.128 170.273 161.203 170.236 161.29C170.199 161.377 170.19 161.474 170.208 161.567C170.226 161.66 170.272 161.745 170.339 161.812C170.406 161.879 170.491 161.925 170.584 161.943C170.677 161.961 170.773 161.951 170.861 161.915C170.948 161.878 171.023 161.816 171.075 161.737C171.127 161.657 171.154 161.565 171.153 161.47C171.151 161.407 171.138 161.345 171.112 161.288C171.086 161.23 171.049 161.178 171.004 161.135C170.958 161.092 170.904 161.059 170.845 161.037C170.786 161.016 170.723 161.006 170.66 161.009L170.681 160.998ZM178.313 160.998C178.219 160.998 178.126 161.026 178.048 161.079C177.969 161.131 177.908 161.206 177.872 161.294C177.836 161.381 177.827 161.477 177.846 161.57C177.865 161.663 177.911 161.748 177.978 161.814C178.045 161.881 178.131 161.926 178.223 161.944C178.316 161.961 178.412 161.951 178.499 161.914C178.586 161.877 178.661 161.815 178.712 161.736C178.764 161.657 178.791 161.564 178.79 161.47C178.787 161.346 178.736 161.228 178.646 161.141C178.557 161.055 178.437 161.007 178.313 161.009V160.998ZM159.233 176.103C159.14 176.103 159.049 176.131 158.971 176.183C158.894 176.234 158.833 176.308 158.797 176.394C158.762 176.48 158.752 176.575 158.771 176.667C158.789 176.758 158.834 176.842 158.9 176.908C158.966 176.974 159.05 177.019 159.141 177.037C159.233 177.056 159.327 177.046 159.414 177.011C159.5 176.975 159.574 176.914 159.625 176.837C159.677 176.759 159.705 176.668 159.705 176.575C159.702 176.451 159.65 176.333 159.561 176.246C159.472 176.16 159.352 176.112 159.228 176.114L159.233 176.103ZM166.87 176.103C166.777 176.103 166.686 176.131 166.608 176.183C166.531 176.234 166.47 176.308 166.435 176.394C166.399 176.48 166.39 176.575 166.408 176.667C166.426 176.758 166.471 176.842 166.537 176.908C166.603 176.974 166.687 177.019 166.778 177.037C166.87 177.056 166.965 177.046 167.051 177.011C167.137 176.975 167.211 176.914 167.263 176.837C167.314 176.759 167.342 176.668 167.342 176.575C167.339 176.451 167.288 176.333 167.198 176.246C167.109 176.16 166.989 176.112 166.865 176.114L166.87 176.103ZM174.502 176.103C174.409 176.103 174.318 176.131 174.24 176.183C174.163 176.234 174.102 176.308 174.067 176.394C174.031 176.48 174.022 176.575 174.04 176.667C174.058 176.758 174.103 176.842 174.169 176.908C174.235 176.974 174.319 177.019 174.41 177.037C174.502 177.056 174.597 177.046 174.683 177.011C174.769 176.975 174.843 176.914 174.895 176.837C174.946 176.759 174.974 176.668 174.974 176.575C174.971 176.451 174.92 176.333 174.83 176.246C174.741 176.16 174.621 176.112 174.497 176.114L174.502 176.103ZM155.422 171.211C155.328 171.21 155.235 171.237 155.155 171.289C155.076 171.341 155.014 171.416 154.978 171.503C154.941 171.591 154.931 171.687 154.949 171.78C154.967 171.873 155.013 171.958 155.08 172.025C155.147 172.092 155.232 172.138 155.325 172.156C155.418 172.174 155.515 172.165 155.602 172.128C155.69 172.091 155.764 172.029 155.816 171.95C155.868 171.871 155.895 171.778 155.894 171.683C155.893 171.621 155.879 171.56 155.854 171.503C155.829 171.446 155.793 171.395 155.749 171.352C155.704 171.31 155.651 171.276 155.593 171.254C155.535 171.231 155.474 171.22 155.412 171.222L155.422 171.211ZM163.054 171.211C162.96 171.211 162.867 171.239 162.789 171.292C162.71 171.345 162.649 171.419 162.613 171.507C162.577 171.594 162.568 171.691 162.587 171.783C162.606 171.876 162.652 171.961 162.719 172.027C162.786 172.094 162.872 172.139 162.965 172.157C163.058 172.174 163.154 172.164 163.241 172.127C163.328 172.09 163.402 172.028 163.454 171.949C163.505 171.87 163.532 171.777 163.531 171.683C163.53 171.62 163.516 171.559 163.491 171.502C163.466 171.445 163.429 171.393 163.384 171.35C163.339 171.308 163.285 171.274 163.227 171.252C163.168 171.23 163.106 171.22 163.044 171.222L163.054 171.211ZM170.692 171.211C170.597 171.21 170.504 171.237 170.425 171.289C170.346 171.341 170.284 171.416 170.247 171.503C170.21 171.591 170.2 171.687 170.218 171.78C170.237 171.873 170.282 171.958 170.349 172.025C170.416 172.092 170.502 172.138 170.595 172.156C170.688 172.174 170.784 172.165 170.871 172.128C170.959 172.091 171.033 172.029 171.085 171.95C171.137 171.871 171.165 171.778 171.163 171.683C171.162 171.619 171.148 171.556 171.122 171.498C171.095 171.44 171.057 171.388 171.01 171.345C170.963 171.301 170.908 171.268 170.848 171.247C170.788 171.226 170.724 171.217 170.66 171.222L170.692 171.211ZM178.324 171.211C178.229 171.211 178.137 171.239 178.058 171.292C177.98 171.345 177.919 171.419 177.883 171.507C177.847 171.594 177.838 171.691 177.856 171.783C177.875 171.876 177.921 171.961 177.988 172.027C178.056 172.094 178.141 172.139 178.234 172.157C178.327 172.174 178.423 172.164 178.51 172.127C178.597 172.09 178.671 172.028 178.723 171.949C178.775 171.87 178.802 171.777 178.801 171.683C178.799 171.62 178.786 171.559 178.76 171.502C178.735 171.445 178.699 171.393 178.653 171.35C178.608 171.308 178.555 171.274 178.496 171.252C178.438 171.23 178.376 171.22 178.313 171.222L178.324 171.211ZM155.422 181.424C155.328 181.423 155.235 181.45 155.155 181.502C155.076 181.554 155.014 181.629 154.978 181.716C154.941 181.804 154.931 181.9 154.949 181.993C154.967 182.086 155.013 182.172 155.08 182.239C155.147 182.306 155.232 182.351 155.325 182.369C155.418 182.388 155.515 182.378 155.602 182.341C155.69 182.304 155.764 182.242 155.816 182.163C155.868 182.084 155.895 181.991 155.894 181.896C155.893 181.834 155.879 181.773 155.854 181.716C155.829 181.66 155.793 181.608 155.749 181.566C155.704 181.523 155.651 181.489 155.593 181.467C155.535 181.444 155.474 181.433 155.412 181.435L155.422 181.424ZM163.054 181.424C162.96 181.424 162.867 181.452 162.789 181.505C162.71 181.558 162.649 181.632 162.613 181.72C162.577 181.807 162.568 181.904 162.587 181.996C162.606 182.089 162.652 182.174 162.719 182.24C162.786 182.307 162.872 182.352 162.965 182.37C163.058 182.388 163.154 182.377 163.241 182.34C163.328 182.303 163.402 182.242 163.454 182.162C163.505 182.083 163.532 181.991 163.531 181.896C163.53 181.834 163.516 181.772 163.491 181.715C163.466 181.658 163.429 181.606 163.384 181.564C163.339 181.521 163.285 181.487 163.227 181.465C163.168 181.443 163.106 181.433 163.044 181.435L163.054 181.424Z" fill="white"/>
<path d="M158.173 166.054C161.3 165.344 164.385 164.464 167.469 163.584C170.554 162.705 173.644 161.825 176.707 160.866C178.435 160.336 180.168 159.806 181.88 159.185C181.928 159.185 181.912 159.09 181.88 159.101C178.758 159.806 175.663 160.691 172.584 161.533C169.505 162.376 166.404 163.293 163.33 164.215C161.597 164.745 159.869 165.275 158.157 165.895C158.057 165.927 158.083 166.075 158.173 166.054Z" fill="#263238"/>
<path d="M158.253 159.382C157.818 159.424 157.384 159.514 156.954 159.599C156.921 159.608 156.892 159.626 156.868 159.65C156.843 159.674 156.826 159.704 156.816 159.737C156.339 161.369 156 163.049 155.661 164.713C155.322 166.378 155.03 167.999 154.76 169.653C154.612 170.538 154.484 171.434 154.384 172.303C153.843 173.384 153.514 174.559 153.414 175.764C153.414 175.778 153.419 175.791 153.429 175.801C153.439 175.811 153.453 175.817 153.467 175.817C153.481 175.817 153.494 175.811 153.504 175.801C153.514 175.791 153.52 175.778 153.52 175.764C153.653 174.695 153.929 173.648 154.341 172.653C154.074 174.835 154.133 177.044 154.516 179.209C153.986 175.976 154.781 172.605 155.311 169.425C155.576 167.835 155.878 166.245 156.191 164.655C156.504 163.065 156.869 161.502 157.161 159.917C157.532 159.774 157.908 159.636 158.263 159.466C158.269 159.461 158.274 159.454 158.277 159.446C158.28 159.438 158.281 159.43 158.279 159.421C158.278 159.413 158.275 159.405 158.271 159.398C158.266 159.391 158.26 159.386 158.253 159.382Z" fill="#263238"/>
<path d="M129.85 132.076C129.601 132.977 125.032 138.727 120.877 138.378C119.526 138.261 119.817 130.846 119.817 130.846L119.716 130.316L118.285 122.584L127.502 117.13L128.832 116.409C128.832 116.409 129.087 118.529 129.362 121.227C129.362 121.349 129.389 121.471 129.399 121.603C129.41 121.736 129.442 121.9 129.452 122.038C129.505 122.435 129.548 122.843 129.59 123.251C129.622 123.559 129.649 123.861 129.67 124.184C129.691 124.508 129.723 124.831 129.749 125.154C129.939 127.457 129.973 129.769 129.85 132.076Z" fill="#F7A9A0"/>
<path d="M129.373 121.211C128.517 123.336 127.209 125.249 125.54 126.818C123.87 128.386 121.88 129.573 119.706 130.295L118.275 122.562L127.502 117.13L128.832 116.409C128.832 116.409 129.087 118.54 129.373 121.211Z" fill="#263238"/>
<path d="M108.549 110.049C107.124 123.782 115.19 126.188 118.153 126.479C120.84 126.755 130.03 127.354 132.866 113.839C135.701 100.324 129.765 95.3258 123.649 94.3665C117.533 93.4072 109.975 96.3169 108.549 110.049Z" fill="#F7A9A0"/>
<path d="M113.176 106.859C113.492 106.837 113.807 106.8 114.12 106.747C114.458 106.754 114.789 106.65 115.063 106.45C115.138 106.372 115.185 106.27 115.196 106.161C115.206 106.053 115.18 105.944 115.121 105.852C114.977 105.691 114.793 105.571 114.587 105.504C114.381 105.437 114.162 105.425 113.95 105.47C113.506 105.494 113.086 105.683 112.773 106C112.712 106.077 112.674 106.17 112.663 106.268C112.651 106.366 112.667 106.465 112.709 106.554C112.751 106.643 112.817 106.719 112.899 106.773C112.982 106.826 113.078 106.856 113.176 106.859Z" fill="#263238"/>
<path d="M123.024 106.784C122.713 106.714 122.407 106.625 122.107 106.519C121.772 106.471 121.462 106.312 121.227 106.069C121.167 105.979 121.139 105.872 121.147 105.765C121.155 105.657 121.198 105.556 121.269 105.475C121.437 105.337 121.638 105.246 121.852 105.211C122.066 105.177 122.286 105.2 122.488 105.279C122.918 105.378 123.296 105.633 123.548 105.995C123.597 106.08 123.621 106.177 123.618 106.276C123.615 106.374 123.584 106.47 123.53 106.552C123.475 106.634 123.399 106.699 123.31 106.74C123.22 106.781 123.121 106.796 123.024 106.784Z" fill="#263238"/>
<path d="M120.57 110.908C120.57 110.876 120.639 110.961 120.633 110.998C120.511 111.931 120.533 113.022 121.349 113.415C121.349 113.415 121.349 113.473 121.349 113.468C120.31 113.219 120.31 111.772 120.57 110.908Z" fill="#263238"/>
<path d="M121.502 110.012C123.018 110.049 122.838 113.075 121.434 113.049C120.029 113.022 120.23 109.986 121.502 110.012Z" fill="#263238"/>
<path d="M122.085 110.208C122.34 110.394 122.584 110.712 122.896 110.765C123.209 110.818 123.564 110.521 123.824 110.235C123.85 110.235 123.872 110.235 123.872 110.272C123.845 110.855 123.591 111.438 122.96 111.485C122.329 111.533 122.011 110.998 121.9 110.425C121.9 110.288 121.985 110.134 122.085 110.208Z" fill="#263238"/>
<path d="M114.851 110.24C114.851 110.203 114.771 110.277 114.771 110.314C114.74 111.258 114.544 112.328 113.674 112.583C113.643 112.583 113.643 112.636 113.674 112.636C114.724 112.535 114.968 111.114 114.851 110.24Z" fill="#263238"/>
<path d="M114.077 109.18C112.577 108.963 112.254 111.984 113.643 112.185C115.031 112.386 115.339 109.365 114.077 109.18Z" fill="#263238"/>
<path d="M113.42 109.312C113.16 109.445 112.89 109.71 112.609 109.699C112.328 109.689 112.079 109.334 111.888 109C111.888 108.963 111.846 109 111.841 109.026C111.761 109.599 111.888 110.224 112.429 110.394C112.97 110.563 113.351 110.092 113.547 109.535C113.595 109.429 113.531 109.259 113.42 109.312Z" fill="#263238"/>
<path d="M119.086 118.222C118.858 118.439 118.63 118.752 118.285 118.752C117.936 118.743 117.592 118.658 117.278 118.503C117.272 118.501 117.266 118.502 117.259 118.504C117.253 118.506 117.248 118.51 117.244 118.514C117.239 118.519 117.236 118.525 117.235 118.531C117.234 118.538 117.234 118.544 117.236 118.55C117.367 118.739 117.546 118.887 117.756 118.981C117.965 119.074 118.196 119.109 118.423 119.08C118.616 119.034 118.791 118.931 118.925 118.785C119.059 118.638 119.146 118.455 119.176 118.259C119.192 118.19 119.117 118.19 119.086 118.222Z" fill="#263238"/>
<path d="M115.402 114.554C115.402 114.554 115.111 115.943 115.063 116.605C115.063 116.664 115.217 116.706 115.439 116.738C115.439 116.738 115.439 116.738 115.466 116.738C116.026 116.882 116.614 116.869 117.167 116.699C117.72 116.53 118.215 116.211 118.598 115.778C118.651 115.72 118.572 115.646 118.508 115.683C117.624 116.198 116.599 116.415 115.582 116.303C115.545 116.118 116.16 113.945 116.059 113.929C115.542 113.936 115.029 114.015 114.533 114.162C115.063 111.258 116.044 108.454 116.521 105.555C116.528 105.533 116.526 105.509 116.515 105.489C116.505 105.469 116.487 105.453 116.465 105.446C116.443 105.439 116.419 105.441 116.399 105.451C116.379 105.462 116.363 105.48 116.356 105.502C115.111 108.358 114.438 111.692 113.818 114.681C113.733 115.052 115.132 114.65 115.402 114.554Z" fill="#263238"/>
<path d="M115.667 116.494C115.994 117.044 116.458 117.501 117.013 117.819C117.321 117.986 117.674 118.049 118.02 117.999C118.778 117.893 118.874 117.225 118.805 116.632C118.767 116.318 118.692 116.011 118.582 115.715C117.719 116.279 116.697 116.552 115.667 116.494Z" fill="#263238"/>
<path d="M117.013 117.819C117.321 117.986 117.674 118.049 118.02 117.999C118.778 117.893 118.874 117.225 118.805 116.632C118.416 116.601 118.029 116.701 117.704 116.917C117.38 117.132 117.136 117.449 117.013 117.819Z" fill="#FF9CBD"/>
<path d="M132.293 113.044C129.113 112.816 129.564 107.828 129.564 107.828C129.564 107.828 126.002 107.208 126.219 101.4C126.219 101.4 124.206 104.754 119.287 105.062C118.227 105.131 121.937 102.746 121.937 102.746C121.937 102.746 116.966 106 109.413 103.949C108.883 103.806 111.236 95.9565 117.48 93.6881C123.723 91.4197 129.018 93.439 132.426 97.5412C132.426 97.5412 136.666 99.9368 136.82 104.156C136.973 108.374 133.523 113.134 132.293 113.044Z" fill="#263238"/>
<path d="M134.737 110.924C135.79 109.188 136.4 107.221 136.515 105.194C136.63 103.168 136.245 101.144 135.394 99.3008C132.489 92.8242 122.07 90.2537 115.195 94.8382C115.195 94.8382 127.014 92.7182 131.011 98.05C135.007 103.382 134.737 110.924 134.737 110.924Z" fill="#FA6767"/>
<path d="M130.502 114.374C130.502 114.374 133.587 110.134 135.521 111.194C137.456 112.254 135.092 118.513 132.781 119.324C132.492 119.45 132.181 119.515 131.866 119.517C131.552 119.519 131.24 119.457 130.95 119.335C130.66 119.213 130.397 119.034 130.178 118.808C129.959 118.582 129.788 118.314 129.675 118.02L130.502 114.374Z" fill="#F7A9A0"/>
<path d="M134.8 112.985C134.837 112.985 134.843 113.033 134.8 113.049C133.178 113.669 132.309 115.169 131.689 116.685C132.177 116.102 132.834 115.784 133.624 116.367C133.666 116.399 133.624 116.462 133.576 116.452C133.294 116.356 132.99 116.35 132.705 116.436C132.42 116.521 132.168 116.694 131.986 116.929C131.685 117.321 131.426 117.744 131.212 118.19C131.133 118.333 130.873 118.254 130.931 118.089V118.052C130.947 116.001 132.59 113.155 134.8 112.985Z" fill="#263238"/>
</svg>
