<svg width="251" height="235" viewBox="0 0 251 235" fill="none" xmlns="http://www.w3.org/2000/svg">
<path d="M165.248 134.354H158.115V153.032H165.248V134.354Z" fill="#A8A8A8"/>
<path d="M163.466 135.886H159.902V146.988H163.466V135.886Z" fill="#8C8C8C"/>
<path d="M161.684 151.406C162.269 151.406 162.743 150.962 162.743 150.414C162.743 149.866 162.269 149.422 161.684 149.422C161.099 149.422 160.625 149.866 160.625 150.414C160.625 150.962 161.099 151.406 161.684 151.406Z" fill="#8C8C8C"/>
<path d="M175.434 134.354H168.301V153.032H175.434V134.354Z" fill="#8C8C8C"/>
<path d="M173.647 135.886H170.083V146.988H173.647V135.886Z" fill="#A8A8A8"/>
<path d="M171.87 151.406C172.455 151.406 172.929 150.962 172.929 150.414C172.929 149.866 172.455 149.422 171.87 149.422C171.285 149.422 170.811 149.866 170.811 150.414C170.811 150.962 171.285 151.406 171.87 151.406Z" fill="#A8A8A8"/>
<path d="M185.619 134.354H178.486V153.032H185.619V134.354Z" fill="#8C8C8C"/>
<path d="M183.832 135.886H180.268V146.988H183.832V135.886Z" fill="#A8A8A8"/>
<path d="M183.114 150.4C183.114 150.203 183.052 150.01 182.935 149.846C182.818 149.682 182.651 149.554 182.456 149.479C182.262 149.404 182.047 149.384 181.841 149.423C181.634 149.462 181.445 149.557 181.296 149.697C181.147 149.837 181.046 150.015 181.006 150.208C180.965 150.402 180.987 150.603 181.068 150.785C181.15 150.967 181.287 151.122 181.463 151.231C181.638 151.34 181.845 151.397 182.055 151.396C182.337 151.395 182.606 151.29 182.805 151.103C183.003 150.916 183.114 150.663 183.114 150.4Z" fill="#A8A8A8"/>
<path d="M195.805 134.354H188.672V153.032H195.805V134.354Z" fill="#A8A8A8"/>
<path d="M194.018 135.886H190.454V146.988H194.018V135.886Z" fill="#8C8C8C"/>
<path d="M193.3 150.4C193.3 150.203 193.238 150.01 193.121 149.846C193.004 149.683 192.838 149.555 192.643 149.479C192.449 149.404 192.235 149.384 192.028 149.423C191.822 149.461 191.632 149.556 191.483 149.695C191.335 149.835 191.233 150.012 191.192 150.206C191.151 150.399 191.172 150.599 191.253 150.781C191.333 150.963 191.47 151.119 191.645 151.228C191.82 151.338 192.025 151.396 192.236 151.396C192.518 151.396 192.789 151.291 192.988 151.105C193.188 150.918 193.3 150.664 193.3 150.4Z" fill="#8C8C8C"/>
<path d="M207.401 86.7573V85.4037H204.701V80.37H202.582V85.4037H155.163V80.37H153.045V85.4037H149.476V86.7573H153.045V107.87H149.476V109.223H153.045V130.34H149.476V131.694H153.045V152.806H149.476V154.16H153.045V177.275H155.163V154.16H202.582V177.275H204.701V154.16H207.401V152.806H204.701V131.694H207.401V130.34H204.701V109.223H207.401V107.87H204.701V86.7573H207.401ZM202.582 152.806H155.163V131.694H202.582V152.806ZM202.582 130.34H155.163V109.223H202.582V130.34ZM202.582 107.87H155.163V86.7573H202.582V107.87Z" fill="#A8A8A8"/>
<path d="M189.555 89.1919H182.422V107.87H189.555V89.1919Z" fill="#8C8C8C"/>
<path d="M187.768 90.7241H184.204V101.826H187.768V90.7241Z" fill="#8C8C8C"/>
<path d="M187.05 105.252C187.05 105.055 186.988 104.862 186.87 104.698C186.753 104.534 186.587 104.406 186.392 104.331C186.197 104.256 185.983 104.236 185.777 104.275C185.57 104.314 185.38 104.409 185.232 104.549C185.083 104.689 184.982 104.867 184.942 105.06C184.901 105.254 184.923 105.454 185.004 105.636C185.086 105.818 185.223 105.974 185.398 106.083C185.574 106.191 185.78 106.249 185.991 106.248C186.272 106.247 186.542 106.141 186.74 105.955C186.939 105.768 187.05 105.515 187.05 105.252Z" fill="#8C8C8C"/>
<path d="M181.187 89.1919H174.053V107.87H181.187V89.1919Z" fill="#8C8C8C"/>
<path d="M179.405 90.7241H175.841V101.826H179.405V90.7241Z" fill="#8C8C8C"/>
<path d="M177.623 106.244C178.208 106.244 178.682 105.8 178.682 105.252C178.682 104.704 178.208 104.26 177.623 104.26C177.038 104.26 176.563 104.704 176.563 105.252C176.563 105.8 177.038 106.244 177.623 106.244Z" fill="#8C8C8C"/>
<path d="M172.824 89.1919H165.69V107.87H172.824V89.1919Z" fill="#A8A8A8"/>
<path d="M171.036 90.7241H167.472V101.826H171.036V90.7241Z" fill="#8C8C8C"/>
<path d="M169.254 106.244C169.839 106.244 170.314 105.8 170.314 105.252C170.314 104.704 169.839 104.26 169.254 104.26C168.669 104.26 168.195 104.704 168.195 105.252C168.195 105.8 168.669 106.244 169.254 106.244Z" fill="#8C8C8C"/>
<path d="M199.384 89.1919H192.251V107.87H199.384V89.1919Z" fill="#8C8C8C"/>
<path d="M197.602 90.7241H194.038V101.826H197.602V90.7241Z" fill="#8C8C8C"/>
<path d="M195.82 106.244C196.405 106.244 196.879 105.8 196.879 105.252C196.879 104.704 196.405 104.26 195.82 104.26C195.235 104.26 194.761 104.704 194.761 105.252C194.761 105.8 195.235 106.244 195.82 106.244Z" fill="#8C8C8C"/>
<path d="M163.913 89.1919H156.78V107.87H163.913V89.1919Z" fill="#A8A8A8"/>
<path d="M162.126 90.7241H158.562V101.826H162.126V90.7241Z" fill="#8C8C8C"/>
<path d="M160.344 106.244C160.929 106.244 161.403 105.8 161.403 105.252C161.403 104.704 160.929 104.26 160.344 104.26C159.759 104.26 159.285 104.704 159.285 105.252C159.285 105.8 159.759 106.244 160.344 106.244Z" fill="#8C8C8C"/>
<path d="M192.663 79.6039H171.222C171.939 80.3874 172.321 81.3923 172.291 82.4239C172.319 83.4552 171.938 84.4595 171.222 85.2439H192.663C193.461 85.2439 194.228 84.9468 194.792 84.4179C195.357 83.8891 195.675 83.1718 195.675 82.4239C195.675 81.676 195.357 80.9587 194.792 80.4299C194.228 79.901 193.461 79.6039 192.663 79.6039Z" fill="#D4D4D4" stroke="white" stroke-miterlimit="10"/>
<path d="M193.506 79.7167V85.07C194.124 84.8969 194.666 84.5428 195.053 84.0597C195.439 83.5766 195.65 82.99 195.655 82.3863C195.647 81.785 195.435 81.2016 195.048 80.7213C194.662 80.2411 194.121 79.889 193.506 79.7167Z" fill="#9C9C9C" stroke="white" stroke-miterlimit="10"/>
<path d="M192.663 73.649H171.222C171.938 74.4334 172.319 75.4377 172.291 76.469C172.319 77.5003 171.938 78.5046 171.222 79.289H192.663C193.461 79.289 194.228 78.9919 194.792 78.463C195.357 77.9342 195.675 77.2169 195.675 76.469C195.675 75.7211 195.357 75.0038 194.792 74.475C194.228 73.9461 193.461 73.649 192.663 73.649Z" fill="#D4D4D4" stroke="white" stroke-miterlimit="10"/>
<path d="M193.506 73.7618V79.1386C194.125 78.9653 194.667 78.6105 195.054 78.1264C195.441 77.6424 195.651 77.0547 195.655 76.4502C195.651 75.8457 195.441 75.258 195.054 74.774C194.667 74.2899 194.125 73.9351 193.506 73.7618Z" fill="#9C9C9C" stroke="white" stroke-miterlimit="10"/>
<path d="M170.941 66.0068H163.808V84.6846H170.941V66.0068Z" fill="#A8A8A8"/>
<path d="M169.154 67.539H165.59V78.6404H169.154V67.539Z" fill="#A8A8A8"/>
<path d="M168.431 82.0667C168.431 81.8706 168.369 81.6788 168.253 81.5157C168.136 81.3527 167.971 81.2255 167.777 81.1505C167.584 81.0754 167.371 81.0558 167.165 81.0941C166.96 81.1323 166.771 81.2268 166.623 81.3655C166.475 81.5042 166.374 81.6809 166.333 81.8732C166.292 82.0656 166.313 82.265 166.393 82.4462C166.473 82.6274 166.609 82.7823 166.783 82.8913C166.958 83.0002 167.162 83.0584 167.372 83.0584C167.511 83.059 167.649 83.0338 167.778 82.9842C167.907 82.9346 168.024 82.8615 168.122 82.7693C168.221 82.6771 168.299 82.5675 168.352 82.4469C168.405 82.3263 168.432 82.1971 168.431 82.0667Z" fill="#A8A8A8"/>
<path d="M199.384 111.479H192.251V130.157H199.384V111.479Z" fill="#A8A8A8"/>
<path d="M197.602 113.016H194.038V124.118H197.602V113.016Z" fill="#8C8C8C"/>
<path d="M196.879 127.544C196.879 127.348 196.817 127.156 196.701 126.993C196.584 126.83 196.419 126.703 196.225 126.628C196.032 126.553 195.819 126.533 195.614 126.571C195.408 126.61 195.219 126.704 195.071 126.843C194.923 126.981 194.822 127.158 194.781 127.35C194.74 127.543 194.761 127.742 194.842 127.923C194.922 128.105 195.058 128.259 195.232 128.368C195.406 128.477 195.611 128.536 195.82 128.536C196.101 128.534 196.369 128.429 196.568 128.244C196.766 128.058 196.878 127.807 196.879 127.544Z" fill="#8C8C8C"/>
<path d="M191.116 111.479H183.983V130.157H191.116V111.479Z" fill="#A8A8A8"/>
<path d="M189.329 113.016H185.765V124.118H189.329V113.016Z" fill="#8C8C8C"/>
<path d="M188.606 127.544C188.606 127.348 188.544 127.156 188.428 126.993C188.311 126.83 188.146 126.703 187.953 126.628C187.759 126.553 187.546 126.533 187.341 126.571C187.135 126.61 186.946 126.704 186.798 126.843C186.65 126.981 186.549 127.158 186.508 127.35C186.467 127.543 186.488 127.742 186.569 127.923C186.649 128.105 186.785 128.259 186.959 128.368C187.133 128.477 187.338 128.536 187.547 128.536C187.686 128.536 187.824 128.51 187.953 128.46C188.081 128.41 188.198 128.337 188.296 128.245C188.395 128.153 188.473 128.044 188.526 127.923C188.579 127.803 188.606 127.674 188.606 127.544Z" fill="#8C8C8C"/>
<path d="M174.048 111.479H166.915V130.157H174.048V111.479Z" fill="#A8A8A8"/>
<path d="M172.261 113.016H168.697V124.118H172.261V113.016Z" fill="#8C8C8C"/>
<path d="M171.538 127.544C171.538 127.348 171.476 127.156 171.36 126.993C171.244 126.83 171.078 126.703 170.885 126.628C170.691 126.553 170.478 126.533 170.273 126.571C170.067 126.61 169.878 126.704 169.73 126.843C169.582 126.981 169.481 127.158 169.44 127.35C169.399 127.543 169.42 127.742 169.501 127.923C169.581 128.105 169.717 128.259 169.891 128.368C170.065 128.477 170.27 128.536 170.479 128.536C170.618 128.536 170.756 128.51 170.885 128.46C171.013 128.41 171.13 128.337 171.228 128.245C171.327 128.153 171.405 128.044 171.458 127.923C171.511 127.803 171.538 127.674 171.538 127.544Z" fill="#8C8C8C"/>
<path d="M182.843 111.479H175.71V130.157H182.843V111.479Z" fill="#A8A8A8"/>
<path d="M181.056 113.016H177.492V124.118H181.056V113.016Z" fill="#8C8C8C"/>
<path d="M180.333 127.544C180.333 127.348 180.271 127.156 180.155 126.993C180.039 126.83 179.873 126.703 179.68 126.628C179.486 126.553 179.273 126.533 179.068 126.571C178.862 126.61 178.673 126.704 178.525 126.843C178.377 126.981 178.276 127.158 178.235 127.35C178.195 127.543 178.215 127.742 178.296 127.923C178.376 128.105 178.512 128.259 178.686 128.368C178.86 128.477 179.065 128.536 179.274 128.536C179.413 128.536 179.551 128.51 179.68 128.46C179.808 128.41 179.925 128.337 180.023 128.245C180.122 128.153 180.2 128.044 180.253 127.923C180.306 127.803 180.333 127.674 180.333 127.544Z" fill="#8C8C8C"/>
<path d="M107.86 134.354H100.726V153.032H107.86V134.354Z" fill="#A8A8A8"/>
<path d="M106.073 135.886H102.508V146.988H106.073V135.886Z" fill="#A8A8A8"/>
<path d="M104.291 151.406C104.875 151.406 105.35 150.962 105.35 150.414C105.35 149.866 104.875 149.422 104.291 149.422C103.706 149.422 103.231 149.866 103.231 150.414C103.231 150.962 103.706 151.406 104.291 151.406Z" fill="#A8A8A8"/>
<path d="M118.04 134.354H110.907V153.032H118.04V134.354Z" fill="#A8A8A8"/>
<path d="M116.258 135.886H112.694V146.988H116.258V135.886Z" fill="#A8A8A8"/>
<path d="M114.476 151.406C115.061 151.406 115.535 150.962 115.535 150.414C115.535 149.866 115.061 149.422 114.476 149.422C113.891 149.422 113.417 149.866 113.417 150.414C113.417 150.962 113.891 151.406 114.476 151.406Z" fill="#A8A8A8"/>
<path d="M128.226 134.354H121.092V153.032H128.226V134.354Z" fill="#A8A8A8"/>
<path d="M126.444 135.886H122.88V146.988H126.444V135.886Z" fill="#A8A8A8"/>
<path d="M124.662 151.406C125.247 151.406 125.721 150.962 125.721 150.414C125.721 149.866 125.247 149.422 124.662 149.422C124.077 149.422 123.602 149.866 123.602 150.414C123.602 150.962 124.077 151.406 124.662 151.406Z" fill="#A8A8A8"/>
<path d="M138.411 134.354H131.278V153.032H138.411V134.354Z" fill="#A8A8A8"/>
<path d="M136.624 135.886H133.06V146.988H136.624V135.886Z" fill="#A8A8A8"/>
<path d="M135.906 150.4C135.906 150.203 135.844 150.01 135.727 149.846C135.61 149.682 135.443 149.554 135.248 149.479C135.054 149.404 134.839 149.384 134.633 149.423C134.426 149.462 134.237 149.557 134.088 149.697C133.939 149.837 133.838 150.015 133.798 150.208C133.757 150.402 133.779 150.603 133.86 150.785C133.942 150.967 134.079 151.122 134.255 151.231C134.43 151.34 134.637 151.397 134.847 151.396C135.129 151.395 135.398 151.29 135.597 151.103C135.795 150.916 135.906 150.663 135.906 150.4Z" fill="#A8A8A8"/>
<path d="M97.7695 80.37H95.6511V177.275H97.7695V80.37Z" fill="#A8A8A8"/>
<path d="M147.307 80.37H145.188V177.275H147.307V80.37Z" fill="#A8A8A8"/>
<path d="M150.008 85.4037H92.0818V86.7573H150.008V85.4037Z" fill="#A8A8A8"/>
<path d="M150.008 107.87H92.0818V109.223H150.008V107.87Z" fill="#A8A8A8"/>
<path d="M150.008 130.34H92.0818V131.694H150.008V130.34Z" fill="#A8A8A8"/>
<path d="M150.008 152.806H92.0818V154.16H150.008V152.806Z" fill="#A8A8A8"/>
<path d="M132.162 89.1919H125.028V107.87H132.162V89.1919Z" fill="#A8A8A8"/>
<path d="M130.374 90.7241H126.81V101.826H130.374V90.7241Z" fill="#A8A8A8"/>
<path d="M129.657 105.252C129.657 105.055 129.594 104.862 129.477 104.698C129.36 104.534 129.193 104.406 128.998 104.331C128.804 104.256 128.589 104.236 128.383 104.275C128.176 104.314 127.987 104.409 127.838 104.549C127.689 104.689 127.588 104.867 127.548 105.06C127.507 105.254 127.529 105.454 127.611 105.636C127.692 105.818 127.829 105.974 128.005 106.083C128.18 106.191 128.387 106.249 128.597 106.248C128.879 106.247 129.148 106.141 129.347 105.955C129.545 105.768 129.657 105.515 129.657 105.252Z" fill="#A8A8A8"/>
<path d="M123.798 89.1919H116.665V107.87H123.798V89.1919Z" fill="#A8A8A8"/>
<path d="M122.011 90.7241H118.447V101.826H122.011V90.7241Z" fill="#8C8C8C"/>
<path d="M120.229 106.244C120.814 106.244 121.288 105.8 121.288 105.252C121.288 104.704 120.814 104.26 120.229 104.26C119.644 104.26 119.17 104.704 119.17 105.252C119.17 105.8 119.644 106.244 120.229 106.244Z" fill="#8C8C8C"/>
<path d="M115.43 89.1919H108.296V107.87H115.43V89.1919Z" fill="#A8A8A8"/>
<path d="M113.643 90.7241H110.079V101.826H113.643V90.7241Z" fill="#8C8C8C"/>
<path d="M111.861 106.244C112.446 106.244 112.92 105.8 112.92 105.252C112.92 104.704 112.446 104.26 111.861 104.26C111.276 104.26 110.801 104.704 110.801 105.252C110.801 105.8 111.276 106.244 111.861 106.244Z" fill="#8C8C8C"/>
<path d="M141.996 89.1919H134.862V107.87H141.996V89.1919Z" fill="#A8A8A8"/>
<path d="M140.209 90.7241H136.644V101.826H140.209V90.7241Z" fill="#8C8C8C"/>
<path d="M138.426 106.244C139.011 106.244 139.486 105.8 139.486 105.252C139.486 104.704 139.011 104.26 138.426 104.26C137.842 104.26 137.367 104.704 137.367 105.252C137.367 105.8 137.842 106.244 138.426 106.244Z" fill="#A8A8A8"/>
<path d="M106.519 89.1919H99.386V107.87H106.519V89.1919Z" fill="#A8A8A8"/>
<path d="M104.732 90.7241H101.168V101.826H104.732V90.7241Z" fill="#8C8C8C"/>
<path d="M102.95 106.244C103.535 106.244 104.009 105.8 104.009 105.252C104.009 104.704 103.535 104.26 102.95 104.26C102.365 104.26 101.891 104.704 101.891 105.252C101.891 105.8 102.365 106.244 102.95 106.244Z" fill="#8C8C8C"/>
<path d="M106.519 66.6319H99.386V85.3097H106.519V66.6319Z" fill="#A8A8A8"/>
<path d="M104.732 68.1641H101.168V79.2655H104.732V68.1641Z" fill="#8C8C8C"/>
<path d="M102.95 83.6835C103.535 83.6835 104.009 83.2395 104.009 82.6918C104.009 82.1441 103.535 81.7001 102.95 81.7001C102.365 81.7001 101.891 82.1441 101.891 82.6918C101.891 83.2395 102.365 83.6835 102.95 83.6835Z" fill="#8C8C8C"/>
<path d="M114.356 66.6319H107.222V85.3097H114.356V66.6319Z" fill="#A8A8A8"/>
<path d="M112.573 68.1641H109.009V79.2655H112.573V68.1641Z" fill="#8C8C8C"/>
<path d="M110.791 83.6835C111.376 83.6835 111.851 83.2395 111.851 82.6918C111.851 82.1441 111.376 81.7001 110.791 81.7001C110.206 81.7001 109.732 82.1441 109.732 82.6918C109.732 83.2395 110.206 83.6835 110.791 83.6835Z" fill="#8C8C8C"/>
<path d="M134.596 85.681V79.0023H114.647V85.681H134.596Z" fill="#A8A8A8"/>
<path d="M132.96 84.0078V80.6708H121.107V84.0078H132.96Z" fill="#8C8C8C"/>
<path d="M117.468 83.331C117.678 83.331 117.882 83.2728 118.056 83.1639C118.231 83.0549 118.366 82.9 118.447 82.7188C118.527 82.5376 118.548 82.3382 118.507 82.1458C118.466 81.9535 118.365 81.7767 118.217 81.6381C118.069 81.4994 117.88 81.4049 117.675 81.3667C117.469 81.3284 117.256 81.348 117.063 81.4231C116.869 81.4981 116.704 81.6253 116.587 81.7883C116.471 81.9514 116.409 82.1432 116.409 82.3393C116.41 82.6019 116.522 82.8535 116.72 83.0392C116.919 83.2249 117.187 83.3298 117.468 83.331Z" fill="#8C8C8C"/>
<path d="M141.996 111.479H134.862V130.157H141.996V111.479Z" fill="#A8A8A8"/>
<path d="M140.209 113.016H136.644V124.118H140.209V113.016Z" fill="#A8A8A8"/>
<path d="M139.486 127.544C139.486 127.348 139.424 127.156 139.307 126.993C139.191 126.83 139.025 126.703 138.832 126.628C138.638 126.553 138.425 126.533 138.22 126.571C138.014 126.61 137.826 126.704 137.678 126.843C137.529 126.981 137.429 127.158 137.388 127.35C137.347 127.543 137.368 127.742 137.448 127.923C137.528 128.105 137.664 128.259 137.838 128.368C138.012 128.477 138.217 128.536 138.427 128.536C138.566 128.536 138.703 128.51 138.832 128.46C138.96 128.41 139.077 128.337 139.175 128.245C139.274 128.153 139.352 128.044 139.405 127.923C139.458 127.803 139.486 127.674 139.486 127.544Z" fill="#A8A8A8"/>
<path d="M133.723 111.479H126.589V130.157H133.723V111.479Z" fill="#A8A8A8"/>
<path d="M131.936 113.016H128.371V124.118H131.936V113.016Z" fill="#A8A8A8"/>
<path d="M131.213 127.544C131.213 127.348 131.151 127.156 131.034 126.993C130.918 126.83 130.752 126.703 130.559 126.628C130.365 126.553 130.152 126.533 129.947 126.571C129.741 126.61 129.553 126.704 129.405 126.843C129.256 126.981 129.156 127.158 129.115 127.35C129.074 127.543 129.095 127.742 129.175 127.923C129.255 128.105 129.391 128.259 129.565 128.368C129.739 128.477 129.944 128.536 130.154 128.536C130.293 128.536 130.43 128.51 130.559 128.46C130.687 128.41 130.804 128.337 130.903 128.245C131.001 128.153 131.079 128.044 131.132 127.923C131.185 127.803 131.213 127.674 131.213 127.544Z" fill="#A8A8A8"/>
<path d="M116.655 111.479H109.521V130.157H116.655V111.479Z" fill="#A8A8A8"/>
<path d="M114.868 113.016H111.303V124.118H114.868V113.016Z" fill="#A8A8A8"/>
<path d="M114.145 127.544C114.145 127.348 114.083 127.156 113.966 126.993C113.85 126.83 113.684 126.703 113.491 126.628C113.297 126.553 113.084 126.533 112.879 126.571C112.673 126.61 112.485 126.704 112.337 126.843C112.188 126.981 112.088 127.158 112.047 127.35C112.006 127.543 112.027 127.742 112.107 127.923C112.187 128.105 112.323 128.259 112.497 128.368C112.671 128.477 112.876 128.536 113.086 128.536C113.225 128.536 113.362 128.51 113.491 128.46C113.619 128.41 113.736 128.337 113.835 128.245C113.933 128.153 114.011 128.044 114.064 127.923C114.117 127.803 114.145 127.674 114.145 127.544Z" fill="#A8A8A8"/>
<path d="M125.45 111.479H118.316V130.157H125.45V111.479Z" fill="#A8A8A8"/>
<path d="M123.663 113.016H120.098V124.118H123.663V113.016Z" fill="#A8A8A8"/>
<path d="M122.94 127.544C122.94 127.348 122.878 127.156 122.761 126.993C122.645 126.83 122.479 126.703 122.286 126.628C122.092 126.553 121.879 126.533 121.674 126.571C121.468 126.61 121.28 126.704 121.132 126.843C120.983 126.981 120.883 127.158 120.842 127.35C120.801 127.543 120.822 127.742 120.902 127.923C120.982 128.105 121.118 128.259 121.292 128.368C121.466 128.477 121.671 128.536 121.881 128.536C122.02 128.536 122.157 128.51 122.286 128.46C122.414 128.41 122.531 128.337 122.63 128.245C122.728 128.153 122.806 128.044 122.859 127.923C122.912 127.803 122.94 127.674 122.94 127.544Z" fill="#A8A8A8"/>
<path d="M50.0544 134.354H42.921V153.032H50.0544V134.354Z" fill="#A8A8A8"/>
<path d="M48.2673 135.886H44.7031V146.988H48.2673V135.886Z" fill="#8C8C8C"/>
<path d="M46.4902 151.406C47.0752 151.406 47.5494 150.962 47.5494 150.414C47.5494 149.866 47.0752 149.422 46.4902 149.422C45.9052 149.422 45.431 149.866 45.431 150.414C45.431 150.962 45.9052 151.406 46.4902 151.406Z" fill="#8C8C8C"/>
<path d="M60.24 134.354H53.1066V153.032H60.24V134.354Z" fill="#A8A8A8"/>
<path d="M58.4529 135.886H54.8887V146.988H58.4529V135.886Z" fill="#8C8C8C"/>
<path d="M56.6758 151.406C57.2608 151.406 57.735 150.962 57.735 150.414C57.735 149.866 57.2608 149.422 56.6758 149.422C56.0908 149.422 55.6166 149.866 55.6166 150.414C55.6166 150.962 56.0908 151.406 56.6758 151.406Z" fill="#8C8C8C"/>
<path d="M70.4256 134.354H63.2921V153.032H70.4256V134.354Z" fill="#8C8C8C"/>
<path d="M68.6385 135.886H65.0743V146.988H68.6385V135.886Z" fill="#A8A8A8"/>
<path d="M66.8564 151.406C67.4414 151.406 67.9156 150.962 67.9156 150.414C67.9156 149.866 67.4414 149.422 66.8564 149.422C66.2714 149.422 65.7971 149.866 65.7971 150.414C65.7971 150.962 66.2714 151.406 66.8564 151.406Z" fill="#A8A8A8"/>
<path d="M80.6112 134.354H73.4777V153.032H80.6112V134.354Z" fill="#A8A8A8"/>
<path d="M78.824 135.886H75.2598V146.988H78.824V135.886Z" fill="#8C8C8C"/>
<path d="M77.0419 151.406C77.6269 151.406 78.1012 150.962 78.1012 150.414C78.1012 149.866 77.6269 149.422 77.0419 149.422C76.4569 149.422 75.9827 149.866 75.9827 150.414C75.9827 150.962 76.4569 151.406 77.0419 151.406Z" fill="#8C8C8C"/>
<path d="M39.9642 80.37H37.8458V177.275H39.9642V80.37Z" fill="#A8A8A8"/>
<path d="M89.5066 80.37H87.3882V177.275H89.5066V80.37Z" fill="#A8A8A8"/>
<path d="M92.2074 85.4037H34.2816V86.7573H92.2074V85.4037Z" fill="#A8A8A8"/>
<path d="M92.2074 107.87H34.2816V109.223H92.2074V107.87Z" fill="#A8A8A8"/>
<path d="M92.2074 130.34H34.2816V131.694H92.2074V130.34Z" fill="#A8A8A8"/>
<path d="M92.2074 152.806H34.2816V154.16H92.2074V152.806Z" fill="#A8A8A8"/>
<path d="M74.3613 89.1919H67.2278V107.87H74.3613V89.1919Z" fill="#8C8C8C"/>
<path d="M72.5741 90.7241H69.0099V101.826H72.5741V90.7241Z" fill="#A8A8A8"/>
<path d="M71.8563 105.252C71.8563 105.055 71.7939 104.862 71.6769 104.698C71.56 104.534 71.3938 104.407 71.1993 104.331C71.0048 104.256 70.7909 104.236 70.5844 104.275C70.378 104.313 70.1883 104.408 70.0395 104.547C69.8907 104.687 69.7893 104.864 69.7482 105.057C69.7072 105.251 69.7283 105.451 69.8088 105.633C69.8894 105.815 70.0258 105.971 70.2008 106.08C70.3758 106.19 70.5816 106.248 70.792 106.248C71.0743 106.248 71.345 106.143 71.5446 105.956C71.7442 105.77 71.8563 105.516 71.8563 105.252Z" fill="#A8A8A8"/>
<path d="M65.9929 89.1919H58.8595V107.87H65.9929V89.1919Z" fill="#A8A8A8"/>
<path d="M64.2058 90.7241H60.6416V101.826H64.2058V90.7241Z" fill="#8C8C8C"/>
<path d="M62.4287 106.244C63.0137 106.244 63.4879 105.8 63.4879 105.252C63.4879 104.704 63.0137 104.26 62.4287 104.26C61.8437 104.26 61.3695 104.704 61.3695 105.252C61.3695 105.8 61.8437 106.244 62.4287 106.244Z" fill="#8C8C8C"/>
<path d="M57.6296 89.1919H50.4962V107.87H57.6296V89.1919Z" fill="#A8A8A8"/>
<path d="M55.8425 90.7241H52.2783V101.826H55.8425V90.7241Z" fill="#8C8C8C"/>
<path d="M54.0604 106.244C54.6454 106.244 55.1196 105.8 55.1196 105.252C55.1196 104.704 54.6454 104.26 54.0604 104.26C53.4754 104.26 53.0012 104.704 53.0012 105.252C53.0012 105.8 53.4754 106.244 54.0604 106.244Z" fill="#8C8C8C"/>
<path d="M84.1904 89.1919H77.057V107.87H84.1904V89.1919Z" fill="#A8A8A8"/>
<path d="M82.4033 90.7241H78.8391V101.826H82.4033V90.7241Z" fill="#8C8C8C"/>
<path d="M80.6262 106.244C81.2112 106.244 81.6854 105.8 81.6854 105.252C81.6854 104.704 81.2112 104.26 80.6262 104.26C80.0412 104.26 79.567 104.704 79.567 105.252C79.567 105.8 80.0412 106.244 80.6262 106.244Z" fill="#8C8C8C"/>
<path d="M63.9699 78.8754V85.5541H83.9193V78.8754H63.9699Z" fill="#A8A8A8"/>
<path d="M65.6114 80.5439V83.8809H77.4686V80.5439H65.6114Z" fill="#8C8C8C"/>
<path d="M81.1282 81.2207C80.9175 81.2198 80.7112 81.2774 80.5356 81.3863C80.3599 81.4953 80.2227 81.6505 80.1414 81.8325C80.0601 82.0145 80.0383 82.215 80.0788 82.4086C80.1193 82.6022 80.2202 82.7802 80.3689 82.92C80.5175 83.0598 80.7071 83.1552 80.9137 83.194C81.1203 83.2328 81.3345 83.2134 81.5293 83.1381C81.724 83.0628 81.8906 82.9351 82.0077 82.7712C82.1249 82.6072 82.1874 82.4144 82.1874 82.2171C82.1874 81.9536 82.076 81.7009 81.8775 81.5142C81.679 81.3275 81.4096 81.2219 81.1282 81.2207Z" fill="#8C8C8C"/>
<path d="M63.2269 72.3142V78.9929H83.1764V72.3142H63.2269Z" fill="#A8A8A8"/>
<path d="M64.8634 73.9827V77.3197H76.7207V73.9827H64.8634Z" fill="#8C8C8C"/>
<path d="M80.3802 74.6595C80.1707 74.6595 79.966 74.7176 79.7918 74.8266C79.6176 74.9356 79.4818 75.0905 79.4016 75.2717C79.3215 75.4529 79.3005 75.6523 79.3414 75.8447C79.3822 76.037 79.4831 76.2137 79.6313 76.3524C79.7794 76.4911 79.9681 76.5856 80.1736 76.6238C80.3791 76.6621 80.592 76.6425 80.7856 76.5674C80.9791 76.4924 81.1446 76.3652 81.2609 76.2022C81.3773 76.0391 81.4395 75.8473 81.4395 75.6512C81.4401 75.5208 81.4132 75.3915 81.3602 75.2709C81.3072 75.1503 81.2292 75.0408 81.1307 74.9486C81.0322 74.8564 80.9152 74.7833 80.7864 74.7337C80.6576 74.6841 80.5195 74.6589 80.3802 74.6595Z" fill="#8C8C8C"/>
<path d="M48.7191 89.1919H41.5857V107.87H48.7191V89.1919Z" fill="#A8A8A8"/>
<path d="M46.932 90.7241H43.3678V101.826H46.932V90.7241Z" fill="#8C8C8C"/>
<path d="M45.1499 106.244C45.7349 106.244 46.2091 105.8 46.2091 105.252C46.2091 104.704 45.7349 104.26 45.1499 104.26C44.5649 104.26 44.0907 104.704 44.0907 105.252C44.0907 105.8 44.5649 106.244 45.1499 106.244Z" fill="#8C8C8C"/>
<path d="M84.1904 111.479H77.057V130.157H84.1904V111.479Z" fill="#A8A8A8"/>
<path d="M82.4033 113.016H78.8391V124.118H82.4033V113.016Z" fill="#8C8C8C"/>
<path d="M81.6854 127.544C81.6864 127.346 81.6247 127.153 81.5082 126.989C81.3916 126.824 81.2255 126.696 81.0308 126.62C80.8361 126.544 80.6217 126.523 80.4148 126.562C80.2079 126.6 80.0178 126.695 79.8687 126.835C79.7195 126.974 79.6181 127.152 79.5772 127.346C79.5363 127.54 79.5578 127.74 79.6389 127.923C79.7201 128.105 79.8573 128.26 80.0331 128.37C80.2089 128.479 80.4153 128.537 80.6262 128.536C80.9067 128.534 81.1754 128.429 81.3737 128.244C81.5721 128.058 81.6841 127.807 81.6854 127.544Z" fill="#8C8C8C"/>
<path d="M75.9174 111.479H68.784V130.157H75.9174V111.479Z" fill="#8C8C8C"/>
<path d="M74.1354 113.016H70.5712V124.118H74.1354V113.016Z" fill="#A8A8A8"/>
<path d="M73.4125 127.544C73.4125 127.348 73.3504 127.156 73.234 126.993C73.1176 126.83 72.9522 126.703 72.7586 126.628C72.5651 126.553 72.3521 126.533 72.1466 126.571C71.9411 126.61 71.7524 126.704 71.6043 126.843C71.4561 126.981 71.3553 127.158 71.3144 127.35C71.2735 127.543 71.2945 127.742 71.3747 127.923C71.4548 128.105 71.5906 128.259 71.7648 128.368C71.939 128.477 72.1438 128.536 72.3533 128.536C72.6338 128.534 72.9024 128.429 73.1008 128.244C73.2991 128.058 73.4112 127.807 73.4125 127.544Z" fill="#A8A8A8"/>
<path d="M50.4108 111.479H43.2774V130.157H50.4108V111.479Z" fill="#8C8C8C"/>
<path d="M48.6287 113.016H45.0645V124.118H48.6287V113.016Z" fill="#A8A8A8"/>
<path d="M47.9059 127.544C47.9059 127.348 47.8437 127.156 47.7273 126.993C47.611 126.83 47.4455 126.703 47.252 126.628C47.0584 126.553 46.8455 126.533 46.64 126.571C46.4345 126.61 46.2458 126.704 46.0977 126.843C45.9495 126.981 45.8486 127.158 45.8078 127.35C45.7669 127.543 45.7879 127.742 45.868 127.923C45.9482 128.105 46.084 128.259 46.2582 128.368C46.4324 128.477 46.6371 128.536 46.8466 128.536C47.1272 128.534 47.3958 128.429 47.5942 128.244C47.7925 128.058 47.9045 127.807 47.9059 127.544Z" fill="#A8A8A8"/>
<path d="M58.8495 111.479H51.716V130.157H58.8495V111.479Z" fill="#8C8C8C"/>
<path d="M57.0674 113.016H53.5032V124.118H57.0674V113.016Z" fill="#A8A8A8"/>
<path d="M56.3445 127.544C56.3445 127.348 56.2824 127.156 56.166 126.993C56.0496 126.83 55.8841 126.703 55.6906 126.628C55.4971 126.553 55.2841 126.533 55.0786 126.571C54.8731 126.61 54.6844 126.704 54.5363 126.843C54.3881 126.981 54.2873 127.158 54.2464 127.35C54.2055 127.543 54.2265 127.742 54.3067 127.923C54.3868 128.105 54.5226 128.259 54.6968 128.368C54.871 128.477 55.0758 128.536 55.2853 128.536C55.5658 128.534 55.8344 128.429 56.0328 128.244C56.2311 128.058 56.3432 127.807 56.3445 127.544Z" fill="#A8A8A8"/>
<path d="M67.6445 111.479H60.5111V130.157H67.6445V111.479Z" fill="#8C8C8C"/>
<path d="M65.8624 113.016H62.2982V124.118H65.8624V113.016Z" fill="#A8A8A8"/>
<path d="M65.1395 127.544C65.1395 127.348 65.0774 127.156 64.961 126.993C64.8446 126.83 64.6792 126.703 64.4856 126.628C64.2921 126.553 64.0791 126.533 63.8737 126.571C63.6682 126.61 63.4795 126.704 63.3313 126.843C63.1832 126.981 63.0823 127.158 63.0414 127.35C63.0006 127.543 63.0215 127.742 63.1017 127.923C63.1819 128.105 63.3176 128.259 63.4918 128.368C63.666 128.477 63.8708 128.536 64.0803 128.536C64.3608 128.534 64.6295 128.429 64.8278 128.244C65.0262 128.058 65.1382 127.807 65.1395 127.544Z" fill="#A8A8A8"/>
<path d="M62.2179 177.463H51.5203L49.9139 160.857H63.8243L62.2179 177.463Z" fill="#FA6767" stroke="#263238" stroke-linecap="round" stroke-linejoin="round"/>
<path d="M63.7992 160.256H49.9339C49.5292 160.256 49.201 160.563 49.201 160.942V161.008C49.201 161.387 49.5292 161.694 49.9339 161.694H63.7992C64.204 161.694 64.5321 161.387 64.5321 161.008V160.942C64.5321 160.563 64.204 160.256 63.7992 160.256Z" fill="white" stroke="#263238" stroke-linecap="round" stroke-linejoin="round"/>
<path d="M50.5916 137.076C50.8049 136.626 51.1262 136.229 51.5303 135.915" stroke="#263238" stroke-linecap="round" stroke-linejoin="round"/>
<path d="M54.2963 159.358C54.2963 159.358 57.4589 158.865 59.6978 155.41C61.9368 151.956 58.7792 150.24 53.6387 146.156C50.441 143.623 49.7432 140.751 50.0845 138.636" stroke="#263238" stroke-linecap="round" stroke-linejoin="round"/>
<path d="M61.0281 158.794C62.2003 158.11 63.0455 157.03 63.3875 155.777C64.0502 153.427 63.1265 150.72 59.4368 148.501C55.7471 146.283 53.7692 145.681 52.0574 143.566" stroke="#263238" stroke-linecap="round" stroke-linejoin="round"/>
<path d="M58.3826 159.725C58.9649 159.64 59.5323 159.482 60.0693 159.255" stroke="#263238" stroke-linecap="round" stroke-linejoin="round"/>
<path d="M104.637 133.038C102.247 130.542 101.273 127.765 101.996 123.953C103.251 117.373 110.962 110.055 110.962 105.454C110.962 100.853 114.401 90.1366 124.908 89.5021C135.415 88.8676 140.746 93.812 142.98 104.641C145.214 115.47 145.103 117.364 147.703 122.416C148.773 124.498 149.983 126.599 150.424 128.897C151.303 133.456 146.017 135.684 142.277 136.939C131.775 140.455 118.633 142.777 108.743 136.408C107.236 135.442 105.857 134.311 104.637 133.038Z" fill="#263238" stroke="#263238" stroke-linecap="round" stroke-linejoin="round"/>
<path d="M142.688 113.011C143.261 113.259 143.86 113.45 144.476 113.58" stroke="white" stroke-miterlimit="10" stroke-linecap="round"/>
<path d="M128.281 98.0655C128.281 98.0655 132.423 107.231 137.317 110.229C138.416 110.901 139.38 111.437 140.214 111.869" stroke="white" stroke-miterlimit="10" stroke-linecap="round"/>
<path d="M121.891 100.89C119.511 104.74 114.978 110.84 108.884 113.402" stroke="white" stroke-miterlimit="10" stroke-linecap="round"/>
<path d="M123.758 97.5344C123.758 97.5344 123.467 98.1548 122.91 99.1559" stroke="white" stroke-miterlimit="10" stroke-linecap="round"/>
<path d="M112.649 113.58C112.649 113.58 104.918 120.79 105.872 129.25" stroke="white" stroke-miterlimit="10" stroke-linecap="round"/>
<path d="M114.722 115.15C114.722 115.15 111.143 124.32 112.272 130.138" stroke="white" stroke-miterlimit="10" stroke-linecap="round"/>
<path d="M118.096 124.315C118.096 124.315 100.264 128.822 98.9141 129.274C97.5637 129.725 97.7595 132.615 97.7595 133.245C97.7595 133.875 93.8087 152.825 93.8087 152.825C92.5444 153.572 91.3503 154.417 90.2395 155.354C88.6984 156.707 89.2757 158.512 89.2757 158.963C89.2757 159.415 89.3711 159.593 88.8891 160.044C88.4072 160.496 87.348 159.687 87.5438 162.484C87.7396 165.28 86.6753 171.884 89.3711 172.227C92.0668 172.57 93.4222 172.321 97.3729 171.057C99.6993 170.331 101.656 168.824 102.865 166.827V177.477H151.248C151.248 177.477 156.162 164.03 156.453 155.189C156.744 146.349 157.994 133.348 156.263 130.914C154.531 128.479 145.369 125.772 137.272 124.87C129.175 123.967 119.541 123.953 118.096 124.315Z" fill="#FA6767"/>
<g style="mix-blend-mode:multiply" opacity="0.24">
<path d="M154.42 129.438C154.671 129.715 154.777 129.95 154.561 130.044C153.898 130.34 150.786 131.28 150.409 132.516C150.033 133.753 150.188 128.756 149.465 130.218C148.743 131.68 147.764 137.466 143.803 149.131C140.635 158.442 138.918 170.342 139.988 177.463H151.248C151.248 177.463 156.162 164.016 156.453 155.175C156.744 146.334 157.994 133.334 156.263 130.9C155.761 130.3 155.134 129.803 154.42 129.438Z" fill="black"/>
</g>
<path d="M118.768 121.786C118.093 122.212 117.56 122.807 117.227 123.502C116.554 124.761 110.867 134.599 110.385 135.05C109.903 135.501 112.985 135.412 114.24 134.871C115.495 134.331 117.804 134.331 117.804 134.331L120.023 135.952L126.865 138.481C126.865 138.481 129.948 136.403 131.489 135.233C133.03 134.063 133.708 133.607 133.708 133.607C135.046 134.031 136.337 134.576 137.563 135.233C139.104 136.136 138.527 136.587 139.104 136.135C139.681 135.684 139.395 134.782 138.602 133.518C137.809 132.253 135.425 125.307 132.433 122.708C129.441 120.108 122.332 119.258 118.768 121.786Z" fill="#FA6767" stroke="#263238" stroke-linecap="round" stroke-linejoin="round"/>
<path d="M132.744 144.257L146.047 144.346L145.756 147.867L138.913 151.114L132.744 147.956V144.257Z" fill="#FA6767" stroke="#263238" stroke-linecap="round" stroke-linejoin="round"/>
<path d="M102.865 143.171L116.168 143.261L115.877 146.781L109.034 150.029L102.865 146.87V143.171Z" fill="#FA6767" stroke="#263238" stroke-linecap="round" stroke-linejoin="round"/>
<g style="mix-blend-mode:multiply" opacity="0.24">
<path d="M103.025 170.163C103.025 170.163 102.272 143.477 102.84 140.469C103.407 137.461 99.4412 128.451 99.6269 133.226C99.8127 138.001 101.133 145.197 101.243 146.988C101.354 148.778 96.7956 147.895 97.1721 150.193C97.5486 152.491 100.184 152.487 100.952 156.026C101.72 159.565 95.2846 159.382 95.2846 161.328C95.2846 163.273 97.5537 165.919 95.6661 167.513C93.7786 169.106 92.7144 166.972 92.7144 166.972C93.3861 168.648 93.5153 170.473 93.0859 172.217C94.5473 171.936 95.9851 171.556 97.388 171.08C99.7143 170.354 101.671 168.847 102.88 166.85V170.685L103.025 170.163Z" fill="black"/>
</g>
<path d="M118.096 124.315C118.096 124.315 100.264 128.822 98.9141 129.274C97.5637 129.725 97.7595 132.615 97.7595 133.245C97.7595 133.875 93.8087 152.825 93.8087 152.825C92.5444 153.572 91.3503 154.417 90.2395 155.354C88.6984 156.707 89.2757 158.512 89.2757 158.963C89.2757 159.415 89.3711 159.593 88.8891 160.044C88.4072 160.496 87.348 159.687 87.5438 162.484C87.7396 165.28 86.6753 171.884 89.3711 172.227C92.0668 172.57 93.4222 172.321 97.3729 171.057C99.6993 170.331 101.656 168.824 102.865 166.827V177.477H151.248C151.248 177.477 156.162 164.03 156.453 155.189C156.744 146.349 157.994 133.348 156.263 130.914C154.531 128.479 145.369 125.772 137.272 124.87C129.175 123.967 119.541 123.953 118.096 124.315Z" stroke="#263238" stroke-linecap="round" stroke-linejoin="round"/>
<path d="M102.865 151.382V166.996C102.865 166.996 101.996 157.069 99.6871 154.541" stroke="#263238" stroke-linecap="round" stroke-linejoin="round"/>
<path d="M89.858 159.8C89.858 159.8 94.9684 161.516 96.0276 165.031C97.0868 168.547 95.8368 170.807 95.8368 170.807" stroke="#263238" stroke-linecap="round" stroke-linejoin="round"/>
<path d="M83.7436 165.717C83.7436 165.717 87.4735 164.129 87.7596 163.837C88.0458 163.546 91.3289 163.692 92.6993 166.963C94.0698 170.234 93.0758 171.804 92.3931 172.156C91.7104 172.509 88.1311 173.486 87.1422 173.486C86.1532 173.486 81.9967 166.93 83.7436 165.717Z" fill="#FA6767" stroke="#263238" stroke-linecap="round" stroke-linejoin="round"/>
<path d="M119.345 123.413C119.345 123.413 117.709 177.336 118.382 177.336H130.143C130.143 177.336 130.239 138.03 131.007 134.331C131.775 130.632 133.612 124.042 133.321 122.238C133.03 120.433 119.928 121.424 119.928 121.424C119.633 122.058 119.436 122.727 119.345 123.413Z" fill="white"/>
<path d="M119.345 123.413C119.345 123.413 117.709 177.336 118.382 177.336H130.143C130.143 177.336 130.239 138.03 131.007 134.331C131.775 130.632 133.612 124.042 133.321 122.238C133.03 120.433 119.928 121.424 119.928 121.424C119.633 122.058 119.436 122.727 119.345 123.413Z" fill="#FA6767"/>
<path opacity="0.7" d="M119.345 123.413C119.345 123.413 117.709 177.336 118.382 177.336H130.143C130.143 177.336 130.239 138.03 131.007 134.331C131.775 130.632 133.612 124.042 133.321 122.238C133.03 120.433 119.928 121.424 119.928 121.424C119.633 122.058 119.436 122.727 119.345 123.413Z" fill="white"/>
<path d="M119.345 123.413C119.345 123.413 117.709 177.336 118.382 177.336H130.143C130.143 177.336 130.239 138.03 131.007 134.331C131.775 130.632 133.612 124.042 133.321 122.238C133.03 120.433 119.928 121.424 119.928 121.424C119.633 122.058 119.436 122.727 119.345 123.413Z" stroke="#263238" stroke-linecap="round" stroke-linejoin="round"/>
<path d="M130.937 134.777C127.078 135.938 122.953 136.08 119.014 135.186C118.572 151.307 117.91 177.336 118.382 177.336H130.144C130.144 177.336 130.234 140.497 130.937 134.777Z" fill="white"/>
<path d="M130.169 171.855C130.169 170.38 130.169 168.711 130.199 166.92H118.286C118.286 168.725 118.241 170.389 118.231 171.855H130.169Z" fill="#263238"/>
<path d="M118.472 157.521C118.437 159.213 118.402 160.862 118.372 162.455H130.249C130.249 160.843 130.279 159.189 130.299 157.521H118.472Z" fill="#263238"/>
<path d="M118.678 148.12C118.638 149.761 118.597 151.41 118.562 153.055H130.344C130.369 151.373 130.395 149.714 130.425 148.12H118.678Z" fill="#263238"/>
<path d="M118.919 138.72C118.879 140.304 118.833 141.959 118.788 143.656H130.52C130.565 141.808 130.62 140.135 130.681 138.72H118.919Z" fill="#263238"/>
<path d="M130.937 134.777C127.078 135.938 122.953 136.08 119.014 135.186C118.572 151.307 117.91 177.336 118.382 177.336H130.144C130.144 177.336 130.234 140.497 130.937 134.777Z" stroke="#263238" stroke-linecap="round" stroke-linejoin="round"/>
<path d="M124.938 100.11C124.938 100.11 123.201 105.252 115.686 109.858C115.686 109.858 115.184 116.264 117.227 121.044C119.27 125.824 124.647 129.617 126.961 129.165C129.275 128.714 133.803 123.84 135.344 120.414C136.885 116.988 136.89 110.849 136.89 110.849C136.89 110.849 129.079 106.084 124.938 100.11Z" fill="white" stroke="#263238" stroke-linecap="round" stroke-linejoin="round"/>
<path d="M124.36 117.547C124.36 117.547 124.165 120.522 124.647 120.795C125.129 121.067 125.997 120.973 126.092 119.982" stroke="#263238" stroke-linecap="round" stroke-linejoin="round"/>
<path d="M123.397 122.67C123.397 122.67 126.384 123.21 128.02 122.308" stroke="#263238" stroke-linecap="round" stroke-linejoin="round"/>
<path d="M123.336 108.64C123.336 108.64 119.29 107.63 117.553 110.45" stroke="#263238" stroke-linecap="round" stroke-linejoin="round"/>
<path d="M127.227 110.803C127.227 110.803 130.033 108.156 133.989 110.544" stroke="#263238" stroke-linecap="round" stroke-linejoin="round"/>
<path d="M118.673 114.295C118.673 114.295 120.505 115.921 123.492 114.765" stroke="#263238" stroke-linecap="round" stroke-linejoin="round"/>
<path d="M127.814 114.68C127.814 114.68 130.324 115.766 132.438 114.501" stroke="#263238" stroke-linecap="round" stroke-linejoin="round"/>
<path d="M120.565 118.807C122.8 118.807 124.611 117.111 124.611 115.018C124.611 112.926 122.8 111.23 120.565 111.23C118.331 111.23 116.519 112.926 116.519 115.018C116.519 117.111 118.331 118.807 120.565 118.807Z" stroke="#263238" stroke-width="0.75" stroke-linecap="round" stroke-linejoin="round"/>
<path d="M130.224 118.807C132.458 118.807 134.27 117.111 134.27 115.018C134.27 112.926 132.458 111.23 130.224 111.23C127.989 111.23 126.178 112.926 126.178 115.018C126.178 117.111 127.989 118.807 130.224 118.807Z" stroke="#263238" stroke-width="0.75" stroke-linecap="round" stroke-linejoin="round"/>
<path d="M124.611 115.018H126.173" stroke="#263238" stroke-width="0.75" stroke-linecap="round" stroke-linejoin="round"/>
<path d="M134.27 115.018H136.639" stroke="#263238" stroke-width="0.75" stroke-linecap="round" stroke-linejoin="round"/>
<path d="M115.435 115.018H116.509" stroke="#263238" stroke-width="0.75" stroke-linecap="round" stroke-linejoin="round"/>
<path d="M122.086 115.253C122.086 115.253 123.116 115.296 122.152 115.629C121.188 115.963 120.214 115.799 119.215 115.004C119.215 115.004 121.128 115.239 122.086 115.253Z" fill="#263238" stroke="#263238" stroke-linecap="round" stroke-linejoin="round"/>
<path d="M129.064 115.028C129.064 115.028 128.06 114.943 128.949 115.39C129.837 115.836 130.846 115.799 131.961 115.126C131.946 115.15 130.018 115.15 129.064 115.028Z" fill="#263238" stroke="#263238" stroke-linecap="round" stroke-linejoin="round"/>
<path d="M144.31 146.419L142.769 131.529C142.769 131.529 139.491 130.9 138.336 130.176C137.182 129.452 135.826 128.554 135.826 128.554C135.826 128.554 135.058 129.184 134.481 128.554C133.903 127.925 132.071 126.674 131.78 125.664C131.489 124.653 133.517 123.314 134.767 121.697C136.017 120.08 137.372 118.539 138.336 118.628C139.3 118.717 143.441 122.67 145.58 125.758C147.719 128.846 148.567 129.635 148.662 130.721C148.758 131.807 150.67 137.301 150.67 137.301L151.172 146.598L144.31 146.419Z" fill="white" stroke="#263238" stroke-linecap="round" stroke-linejoin="round"/>
<path d="M135.826 128.554C135.826 128.554 133.929 126.801 133.929 126.275" stroke="#263238" stroke-linecap="round" stroke-linejoin="round"/>
<path d="M141.032 137.804L142.864 147.368L144.872 136.718L152.678 135.91C152.678 135.91 152.608 147.279 152.608 150.165C152.608 153.051 153.958 166.23 154.345 170.845C154.731 175.46 152.126 176.955 148.562 177.068C144.998 177.181 142.101 174.093 140.947 167.865C139.792 161.638 141.137 150.268 140.56 148.374C139.983 146.48 137.548 138.721 137.548 138.721L141.032 137.804Z" fill="#FA6767"/>
<g style="mix-blend-mode:multiply" opacity="0.24">
<path d="M149.787 176.955C152.693 176.551 154.671 174.882 154.335 170.845C153.948 166.244 152.598 153.07 152.598 150.165C152.598 147.26 152.693 135.91 152.693 135.91L151.428 136.042C150.7 138.312 146.644 151.636 148.707 161.149C150.977 171.578 152.864 172.636 149.842 176.88L149.787 176.955Z" fill="black"/>
</g>
<path d="M141.032 137.804L142.864 147.368L144.872 136.718L152.678 135.91C152.678 135.91 152.608 147.279 152.608 150.165C152.608 153.051 153.958 166.23 154.345 170.845C154.731 175.46 152.126 176.955 148.562 177.068C144.998 177.181 142.101 174.093 140.947 167.865C139.792 161.638 141.137 150.268 140.56 148.374C139.983 146.48 137.548 138.721 137.548 138.721L141.032 137.804Z" stroke="#263238" stroke-linecap="round" stroke-linejoin="round"/>
<path d="M79.7527 175.075C79.7527 175.075 79.5218 176.527 80.9274 176.856C82.333 177.185 85.7115 176.363 85.9926 175.686C86.0762 175.5 86.0998 175.296 86.0606 175.098C86.0213 174.9 85.9209 174.717 85.7717 174.572H82.6894C82.6894 174.572 80.3652 173.9 79.7527 175.075Z" fill="white" stroke="#263238" stroke-linecap="round" stroke-linejoin="round"/>
<path d="M65.9528 159.415L78.7287 167.724L79.6825 166.535L66.8463 158.155L65.9528 159.415Z" fill="#263238" stroke="#263238" stroke-linecap="round" stroke-linejoin="round"/>
<path d="M68.9196 161.342L69.9135 160.157L66.8463 158.155L65.9528 159.415L68.9196 161.342Z" fill="white" stroke="#263238" stroke-linecap="round" stroke-linejoin="round"/>
<path d="M81.7557 174.948C83.7556 174.86 85.6587 174.116 87.1322 172.847C89.4213 170.76 89.5769 169.365 86.4846 166.366C83.3922 163.367 76.6303 166.878 76.4144 168.204C76.1986 169.529 81.7557 174.948 81.7557 174.948Z" fill="white" stroke="#263238" stroke-linecap="round" stroke-linejoin="round"/>
<path d="M88.598 169.529C88.598 169.529 87.7245 171.235 86.8962 171.879C86.0679 172.523 84.7527 172.697 83.9745 171.658C83.1964 170.619 82.3983 167.395 81.7206 167.329C81.0429 167.264 77.6644 166.225 76.7006 164.979C75.7367 163.734 75.7869 162.77 77.9104 163.363C80.0338 163.955 85.7165 164.646 85.7165 164.646C85.7165 164.646 87.0618 165.402 87.9956 168.058" fill="white"/>
<path d="M88.598 169.529C88.598 169.529 87.7245 171.235 86.8962 171.879C86.0679 172.523 84.7527 172.697 83.9745 171.658C83.1964 170.619 82.3983 167.395 81.7206 167.329C81.0429 167.264 77.6644 166.225 76.7006 164.979C75.7367 163.734 75.7869 162.77 77.9104 163.363C80.0338 163.955 85.7165 164.646 85.7165 164.646C85.7165 164.646 87.0618 165.402 87.9956 168.058" stroke="#263238" stroke-linecap="round" stroke-linejoin="round"/>
<path d="M77.6694 173.524C77.9706 173.872 78.9596 175.446 79.4264 175.554C79.8933 175.662 82.7597 173.956 83.8641 172.654C84.9685 171.353 82.9103 169.548 82.323 169.294C81.7357 169.04 77.6694 173.524 77.6694 173.524Z" fill="white" stroke="#263238" stroke-linecap="round" stroke-linejoin="round"/>
<path d="M76.2086 168.824C76.2086 168.824 73.6986 170.234 74.296 171.202C74.8934 172.17 76.9014 173.641 77.544 173.383C78.1865 173.124 82.5138 171.24 82.4937 170.21C82.4736 169.181 82.4033 167.954 80.1895 168.124C78.8405 168.229 77.5066 168.464 76.2086 168.824Z" fill="white" stroke="#263238" stroke-linecap="round" stroke-linejoin="round"/>
<path d="M73.6986 164.918C73.6986 164.918 72.4788 167.24 73.5982 168.246C74.7177 169.252 81.6302 169.228 81.9816 168.044C82.333 166.859 79.7427 166.606 77.8401 165.84C75.9375 165.073 73.9647 164.368 73.6986 164.918Z" fill="white" stroke="#263238" stroke-linecap="round" stroke-linejoin="round"/>
<path d="M100.505 177.011C100.505 177.011 100.315 173.942 97.4231 172.861C94.5316 171.78 92.9855 172.227 86.5297 173.853C82.4613 174.849 78.2949 175.454 74.0952 175.658V177.011H100.505Z" fill="white" stroke="#263238" stroke-linecap="round" stroke-linejoin="round"/>
<path d="M100.4 177.011C100.4 177.011 100.591 173.942 103.482 172.861C106.374 171.78 107.915 172.227 114.376 173.853C118.442 174.849 122.607 175.454 126.805 175.658V177.011H100.4Z" fill="white" stroke="#263238" stroke-linecap="round" stroke-linejoin="round"/>
<path d="M127.879 176.471H73.4225V177.463H127.879V176.471Z" fill="#263238" stroke="#263238" stroke-linecap="round" stroke-linejoin="round"/>
<path d="M41.666 177.463H216.693" stroke="#263238" stroke-linecap="round" stroke-linejoin="round"/>
<path d="M214.685 150.212H177.577L164.952 177.552H202.06L214.685 150.212Z" fill="white" stroke="#263238" stroke-linecap="round" stroke-linejoin="round"/>
<path d="M216.131 150.212H179.023L166.398 177.552H203.506L216.131 150.212Z" fill="#263238" stroke="#263238" stroke-linecap="round" stroke-linejoin="round"/>
<path d="M194.234 166.85C193.28 168.26 191.493 168.815 190.243 168.072C188.993 167.329 188.737 165.586 189.701 164.171C190.665 162.756 192.442 162.211 193.717 162.949C194.992 163.687 195.188 165.44 194.234 166.85Z" fill="white" stroke="#FA6767" stroke-linecap="round" stroke-linejoin="round"/>
<path d="M165.434 176.471H138.351V177.463H165.434V176.471Z" fill="white" stroke="#263238" stroke-linecap="round" stroke-linejoin="round"/>
</svg>
